<svg version="1.1" xmlns="http://www.w3.org/2000/svg" viewBox="0 0 846.9297732636985 868.3333435058594" width="1693.859546527397" height="1736.6666870117188">
  <!-- svg-source:excalidraw -->
  
  <defs>
    <style>
      @font-face {
        font-family: "Virgil";
        src: url("https://unpkg.com/@excalidraw/excalidraw@0.12.0-e9067de/dist/excalidraw-assets/Virgil.woff2");
      }
      @font-face {
        font-family: "Cascadia";
        src: url("https://unpkg.com/@excalidraw/excalidraw@0.12.0-e9067de/dist/excalidraw-assets/Cascadia.woff2");
      }
    </style>
  </defs>
  <rect x="0" y="0" width="846.9297732636985" height="868.3333435058594" fill="#f1f3f5"></rect><g transform="translate(146.9299563691672 10) rotate(0 193.5 50.5)"><text x="0" y="18.25" font-family="Virgil, Segoe UI Emoji" font-size="20px" fill="#000000" text-anchor="start" style="white-space: pre;" direction="ltr">Requirements</text><text x="0" y="43.5" font-family="Virgil, Segoe UI Emoji" font-size="20px" fill="#000000" text-anchor="start" style="white-space: pre;" direction="ltr">-----------------</text><text x="0" y="68.75" font-family="Virgil, Segoe UI Emoji" font-size="20px" fill="#000000" text-anchor="start" style="white-space: pre;" direction="ltr">Download video stream chat messages.</text><text x="0" y="94" font-family="Virgil, Segoe UI Emoji" font-size="20px" fill="#000000" text-anchor="start" style="white-space: pre;" direction="ltr">Store in database or text.</text></g><g stroke-linecap="round" transform="translate(16.6917971894797 368.6253356933594) rotate(0 139.27903862694296 77.04129028320312)"><path d="M1.4 0.16 C84.61 -1.9, 168.45 -2.01, 277.71 -1.02 M-0.2 -0.66 C79.24 -0.94, 157.82 -0.74, 278.65 -0.12 M279.89 0.48 C277.31 40.46, 277.08 81.06, 277.57 152.29 M278.31 -0.7 C277.44 61.22, 278.46 120.85, 278.81 154.22 M277.81 154.95 C197.73 156.11, 117.05 156.6, 1.37 153.25 M278.08 153.51 C176.98 155.01, 76.99 154.56, 0.49 154.82 M1.24 153.17 C-0.03 93.99, -2.89 34.52, -1.99 1.24 M-0.68 154.75 C0.72 122.07, 0.88 91.8, -0.27 0.21" stroke="#000000" stroke-width="1" fill="none"></path></g><g stroke-linecap="round"><g transform="translate(19.192900935293096 408.3861631066868) rotate(0 139.3275405867789 -0.9007959714772369)"><path d="M1.1 0.13 C47.6 -0.35, 232.21 -1.57, 278.44 -1.93 M0.21 -0.85 C46.66 -1.23, 231.52 -0.47, 277.84 -0.47" stroke="#000000" stroke-width="1" fill="none"></path></g></g><g transform="translate(31.59639924026095 375.99993896484375) rotate(0 25 12.5)"><text x="0" y="18" font-family="Virgil, Segoe UI Emoji" font-size="20px" fill="#000000" text-anchor="start" style="white-space: pre;" direction="ltr">Video</text></g><g transform="translate(32.92977326369845 414.6666259765625) rotate(0 54.5 38)"><text x="0" y="18.333333333333332" font-family="Virgil, Segoe UI Emoji" font-size="20px" fill="#000000" text-anchor="start" style="white-space: pre;" direction="ltr">ID</text><text x="0" y="43.666666666666664" font-family="Virgil, Segoe UI Emoji" font-size="20px" fill="#000000" text-anchor="start" style="white-space: pre;" direction="ltr">Title</text><text x="0" y="69" font-family="Virgil, Segoe UI Emoji" font-size="20px" fill="#000000" text-anchor="start" style="white-space: pre;" direction="ltr">Channel ID</text></g><g stroke-linecap="round" transform="translate(558.6917971894798 379.2919921875) rotate(0 135.06076049804688 74.70797729492188)"><path d="M-0.3 0 C55.72 -0.33, 114.32 -0.48, 268.61 1.4 M-0.66 -0.71 C66.51 -1.21, 133.1 -1.39, 270.48 0.47 M270.94 0.84 C271.1 51.62, 268.83 100.78, 270.99 148.09 M269.14 -0.17 C269.77 38.23, 270.89 77.83, 269.68 148.88 M271.55 149.59 C194.01 150.3, 117.03 148.67, 1.11 150.49 M270.36 149.94 C186.31 147.49, 104.07 147.9, -0.01 149.34 M-1.56 150.95 C-0.59 91.08, 0.66 37.69, 0.04 0.82 M0.98 149.44 C1.89 106.93, 0.81 63.83, -0.55 0.59" stroke="#000000" stroke-width="1" fill="none"></path></g><g stroke-linecap="round"><g transform="translate(561.117151193386 417.8486022949219) rotate(0 134.2381758607272 -0.7917786966684162)"><path d="M-0.23 0 C44.51 -0.31, 223.29 -1.31, 268.19 -1.59 M-1.8 -1.05 C43.29 -1.17, 225.25 -0.1, 270.28 0.01" stroke="#000000" stroke-width="1" fill="none"></path></g></g><g transform="translate(570.929895334011 387.9999694824219) rotate(0 36.5 12.5)"><text x="0" y="18" font-family="Virgil, Segoe UI Emoji" font-size="20px" fill="#000000" text-anchor="start" style="white-space: pre;" direction="ltr">Channel</text></g><g transform="translate(572.929895334011 426.6666259765625) rotate(0 26 25.5)"><text x="0" y="17.5" font-family="Virgil, Segoe UI Emoji" font-size="20px" fill="#000000" text-anchor="start" style="white-space: pre;" direction="ltr">ID</text><text x="0" y="43" font-family="Virgil, Segoe UI Emoji" font-size="20px" fill="#000000" text-anchor="start" style="white-space: pre;" direction="ltr">Name</text></g><g stroke-linecap="round" transform="translate(13.5963382051047 654.9999694824219) rotate(0 139.33334350585938 101.66668701171875)"><path d="M0 0 C0 0, 0 0, 0 0 M0 0 C0 0, 0 0, 0 0 M-0.26 6.29 C1.43 4.9, 3.58 2.14, 4.39 -0.12 M-0.12 6.67 C0.95 4.77, 2.06 3.46, 4.91 -0.01 M-0.62 11.81 C4.96 9.63, 5.43 3.47, 12.09 1.36 M0.03 12.29 C3.58 7.67, 7.98 4.07, 11.39 0.17 M-0.64 20.29 C3.21 14.14, 8.64 6.07, 14.93 1.15 M0.56 17.62 C5.79 12.8, 11.53 4.53, 15.74 0.91 M-1.51 22.09 C5.58 17.14, 9.19 9.82, 20.68 0.28 M0.73 23.33 C9.12 13.94, 17.47 6.16, 20.5 -0.32 M-0.31 30.96 C6.11 20.67, 15.94 11.88, 24.28 1.45 M-0.89 30.7 C8.96 19.34, 18.33 8.74, 26.7 -0.48 M-0.46 35 C11.75 22.95, 25.46 9.02, 30.49 0.48 M0.54 36.45 C10.75 22.67, 22.59 10.53, 32.07 0.13 M2.12 42.76 C9.58 34.95, 16.66 21.95, 36.91 0.7 M0.08 43.02 C10.22 31.36, 19.87 19.79, 35.97 -0.04 M1.03 49.59 C16.15 29.99, 28.4 14.71, 43.28 -1.07 M-0.92 48.89 C14.55 34.08, 27.87 17.22, 42.61 0.24 M0.01 56.31 C16.93 34.38, 31.82 18.46, 46.2 -0.49 M-0.24 55.26 C17.61 36.67, 32.29 17.86, 47.86 0.92 M-0.34 59.25 C20.06 38.56, 42.34 15.07, 52.4 0.25 M-0.01 60.1 C19.07 40.4, 37.8 17.94, 52.44 0.71 M-1.92 68.99 C14.66 49.45, 32.95 29.16, 57.51 -1.49 M-0.18 66.86 C16.58 46.71, 33.95 27.45, 58.7 1.08 M0.83 72.6 C18.74 53.32, 37.66 28.97, 63.25 1.08 M-0.42 72.75 C21.18 48.87, 41.12 24.99, 63.86 0.22 M-0.97 79.91 C17.64 55.59, 36.81 34.09, 68.23 -1.68 M-0.12 79 C24.67 51.78, 49.81 21.41, 68.78 1.12 M1.9 86.26 C24.12 56.61, 52.01 27, 73.18 -1.96 M0.18 85.55 C22.22 59.21, 46.35 32.44, 75.19 -0.53 M-0.43 90.47 C29.53 56.63, 59.53 23.91, 79.72 -0.43 M-0.4 91.13 C16.4 70.37, 34.21 51.77, 78.43 -0.25 M-0.4 97.62 C26.24 68.01, 57.19 32.48, 83.58 -0.26 M-0.56 97.93 C29.82 63.16, 61.41 26.77, 84.73 -0.86 M1.07 105.27 C33.13 66.5, 67.51 26.86, 89.37 -1.11 M-0.72 103.92 C29.46 69.28, 60.42 32.38, 89.95 -0.36 M0.6 109.78 C28.03 75.69, 57.2 44.38, 95.83 -1.17 M-1.02 109.07 C34.78 71.2, 70.56 30.61, 94.81 -0.08 M0.92 116.96 C31.58 75.72, 64.46 40.77, 102.55 0.9 M1.25 116.08 C39.07 71.56, 78.62 25.09, 99.67 -0.52 M1.64 120.14 C30.59 87.04, 60.17 50.58, 107.29 -0.09 M0.46 122.41 C40.21 75.57, 80.68 29.55, 105.74 0.5 M-0.17 126.9 C26.91 96.51, 58.49 59.49, 112.64 -1.78 M-0.84 129.03 C27.94 96.84, 54.93 64.65, 111.88 -0.04 M0.08 133.31 C38.48 87.76, 74.61 44.25, 114.68 0.38 M0.19 134.65 C30.59 97.65, 63.18 60.3, 117.16 0.31 M0.49 142.21 C26.35 110.63, 51.66 81.52, 121 -0.52 M0.63 139.97 C43.33 90.11, 86.88 40.18, 122.91 -0.23 M1.3 145.92 C28.51 113.14, 61.81 75.13, 128.7 -0.65 M0.48 146.46 C41.98 97.75, 82.96 49.69, 126.71 0.54 M-0.35 152.29 C54 91.13, 103.65 31.81, 132.97 1.16 M-0.6 152.33 C29.21 118.7, 56.76 87.9, 133.01 -0.37 M-1.78 159.28 C35.17 115.46, 72.08 75.21, 138 1.97 M-0.92 159.23 C53.1 95.93, 109.36 31.19, 137.99 0.59 M-1.22 165.55 C38.73 121.37, 76.62 78.78, 142.21 0.27 M-0.37 164.74 C37.68 121.21, 75.35 77.25, 142.72 0.09 M0.77 172.44 C33.37 131.29, 70.2 94.47, 148.14 1.35 M-0.57 170.39 C53.21 108.9, 106.8 47.17, 147.57 1.12 M-1 175.36 C37.49 134.81, 72.8 95.05, 153.56 0.95 M-0.28 176.12 C62.32 105.45, 122.54 35.4, 153.97 0 M-1.06 183.3 C58.65 115.79, 119.39 48.38, 160.05 1.7 M-0.66 182.96 C44.58 131.03, 88.81 81.39, 159.22 0.98 M0.67 189.85 C57.82 122.13, 115.36 57.86, 164.69 0.31 M-0.71 189.5 C42.89 138.51, 86.26 88.92, 165.22 -0.01 M0.68 195.79 C53.7 135.71, 105.61 76.04, 168.24 0.22 M0.73 194.15 C37.24 151.87, 75.63 109.91, 169.78 0.78 M-0.32 201.3 C37.41 156.85, 78.01 110.57, 173.54 -1.03 M-0.12 200.64 C59.94 128.77, 122.02 58.52, 175.16 0.57 M2.46 204.87 C51.88 147.02, 103.48 86.81, 180.34 0.68 M2.56 203.93 C48.68 152.48, 95.81 99.28, 179.58 -0.5 M6.99 205.95 C63.05 141.53, 115.26 80.66, 184.41 0.55 M6.72 205.74 C64.64 141.81, 120.92 76.88, 185.66 -0.84 M11.37 204.29 C70.43 140.04, 128.64 71.75, 191.02 0.36 M12.61 205.95 C57.83 151.11, 104.82 96.46, 190.45 0.81 M16.58 205.65 C58.09 162.2, 96.61 117.48, 195.19 -0.75 M17.69 205.14 C57.3 158.7, 97.38 112.23, 196.95 -0.58 M24.37 205.93 C68.04 149.21, 118.25 94.16, 201.38 -0.25 M22.35 205.96 C77.42 143.83, 130.69 83.17, 201.05 0.55 M29.36 204.67 C100.08 124.62, 167.9 43.66, 206.96 -1.32 M28.2 204.72 C91.54 133.43, 154.13 60.49, 207.7 0.33 M32.52 204.79 C94.95 136.35, 154.61 68.17, 212.5 -0.66 M32.91 205.25 C75.32 158.05, 116.49 110.46, 211.62 0.82 M40.17 203.49 C84.36 153.94, 129.25 101.1, 217.69 -0.68 M38.5 205.03 C103.13 129.23, 167.85 54.46, 218.16 -0.7 M43.13 204.48 C108.35 133.04, 171.08 59.98, 222.32 -0.39 M44.55 205.92 C105.63 135.06, 167.39 64.46, 222.42 0.58 M50.07 205.73 C94.26 156.14, 137.81 104.12, 228.44 -1.44 M50.37 205.02 C108.95 137.15, 169.22 67.92, 228.57 -0.01 M54.15 205.49 C120.29 127.33, 188.37 51.27, 231.93 1.06 M54.39 205.38 C105.78 145.23, 158.59 85.08, 233.68 0.38 M60.14 205.63 C131.88 122.02, 204.12 40.55, 239.63 0.75 M60.96 205.25 C119.13 137.31, 177.33 70.29, 238.52 0.57 M66.66 205.19 C103.66 162.28, 143.03 119.71, 242.38 1.04 M65.78 205.73 C128.24 134.19, 188.95 64.36, 244.08 -0.81 M71.45 203.68 C128.83 135.37, 188.3 69.22, 247.39 1.74 M70.49 204.68 C108.96 162.46, 147.65 119.1, 249.57 0.06 M75.48 204.05 C129.14 143.84, 182.7 82.73, 254.76 0.05 M75.86 205.94 C143.01 127.23, 209.74 51.41, 253.88 0.66 M81.96 203.49 C135.55 146.36, 184.86 86.93, 258.41 -0.34 M82.35 205.42 C127.3 154.68, 171.93 101.71, 259.74 -0.25 M87.94 205.7 C137.33 144.64, 188.41 88.66, 263.89 -1.43 M86.43 205 C131.17 154.89, 175.49 103.7, 264.87 0.67 M92.73 205.54 C145 145.52, 198.59 84.08, 270.61 1.25 M92.08 204.88 C149.06 138.82, 208 71.39, 270.84 0.2 M95.74 204.38 C163.03 125.96, 229.99 51.3, 277.09 0.21 M97.73 204.99 C140.42 156.01, 183.43 106.48, 275.75 -0.27 M101.72 204.08 C171.84 126.81, 236.93 48.52, 281.31 1.49 M103.06 205.16 C155.16 143.12, 208.54 80.32, 279.32 1.11 M109.34 203.66 C142.32 165.14, 179.46 122.15, 279.51 6.76 M108.46 204.89 C144.15 162.74, 180.57 120.42, 280.19 7.5 M113.11 205.89 C176.41 131.54, 239.22 60.17, 279.22 14.63 M113.98 205.24 C152.32 157.94, 193.58 111.9, 280.98 13.62 M117.18 204.07 C155.63 161.6, 191.23 118.07, 281.17 18.8 M118.84 205.27 C157.62 161.46, 196.17 117.63, 279.46 19.96 M124.95 205.1 C175.31 145.28, 222.87 89.55, 281.06 27.39 M123.43 204.01 C156.8 167.2, 191.02 128.24, 278.84 26.1 M130.07 206.27 C169.97 161.45, 205.87 116.09, 280.66 32.45 M129.1 205.04 C187.13 138.54, 244.6 71.7, 279.34 31.47 M134.34 206.2 C171.48 166.19, 204.3 126.67, 279.41 38.68 M134.34 206.14 C178.35 156.36, 221.51 107.33, 279.36 37.54 M139.19 203.95 C186.35 153.32, 232.05 100.16, 278.98 44.88 M139.5 204.76 C184.09 154.36, 226.91 104.24, 280.16 44.3 M143.66 204.8 C194.94 148.22, 241.59 92.74, 281.57 49.76 M144.93 205.64 C190.84 150.97, 237.45 95.97, 280.58 49.29 M148.87 204.44 C184.5 167.72, 219.41 127.55, 280.3 57.41 M150.33 205.05 C189.19 159.42, 228.67 114.83, 279.86 56.35 M157.26 205.76 C195.05 157.11, 235.42 110.1, 281.97 61.12 M154.69 205.57 C186.6 171.84, 217.65 136.09, 279.08 62.01 M160.92 205.01 C196.71 161.57, 235.61 118.66, 279.91 68.73 M162.01 204.7 C187.79 174.55, 214.72 143.54, 279.93 68.44 M164.97 206.03 C207.44 158.34, 249.6 111.6, 281.33 73.56 M165.89 204.65 C195.54 171.34, 223.93 139.35, 280.88 74.58 M172.63 206.15 C204.65 169.21, 232.6 132.67, 278.35 80.44 M170.82 204.37 C207.3 163.41, 243.52 122.21, 280.03 80.15 M176.01 206.19 C206.32 171.23, 234.15 135.57, 280.56 88.45 M176.88 205.58 C201.12 177.94, 226.42 150.03, 279.71 86.35 M181.36 204.47 C205.77 178.57, 228.97 155.65, 281.02 93.15 M183.07 204.74 C214.43 170.21, 243.26 135.37, 280.49 92.15 M187.78 206.84 C220.53 165.49, 254.92 130.95, 278.35 96.89 M187.97 205.06 C212.58 176.89, 237.69 146.9, 279.2 98.51 M192.5 204.62 C226 167.5, 255.91 132.98, 281.28 103.48 M193.07 204.49 C212.91 181.39, 231.93 159.63, 279.59 105.14 M197.64 204.63 C229.79 170.21, 257.42 135.75, 279.42 112.27 M197.46 205.77 C215.54 184.57, 232.91 162.69, 279.01 110.5 M203.42 203.2 C229.4 174.47, 254.74 147.07, 279.85 116.83 M203.13 204.33 C229.58 174.84, 252.92 146.95, 279.02 116.55 M206.96 204.16 C236.51 173.74, 263.48 138.41, 281.14 123.22 M207.67 204.4 C233.69 175.99, 259.59 145.28, 279.44 122.99 M215.49 204.84 C237.75 177.26, 260.38 151.4, 279.42 128.29 M213.57 204.93 C234.61 180.67, 254.53 157.49, 280.38 129.56 M221.13 206.08 C234.84 188.1, 249.15 170.57, 280.9 134.36 M218.91 205.64 C239.19 180.73, 261.85 156.26, 280.81 134.7 M226.09 206.18 C240.57 185.34, 254.97 168.54, 280.7 143.26 M224.69 204.98 C237.6 191.47, 250.11 174.94, 279.33 141.62 M229.51 206.99 C247.25 186.69, 263.97 166.49, 279.4 147.06 M229.5 204.17 C243.62 189.79, 255.13 175.53, 278.77 147.04 M236.6 203.83 C249.96 187.31, 264.34 171.27, 281.07 154.35 M234.82 205.17 C250.52 186.39, 267.55 168.44, 280.19 153.42 M241.48 203.53 C253.94 188.72, 265.75 175.1, 279.34 160.45 M239.75 204.69 C254.35 188.03, 270.25 170.5, 278.95 159.21 M243.73 207.17 C256.74 191.32, 265.95 178.54, 281.92 166.19 M245.61 204.95 C258.11 190.08, 269.96 176.9, 279.27 165.63 M250.42 204.32 C257.08 196.84, 264.96 190.16, 281.43 171.91 M251.96 205.88 C261.64 194.31, 271.62 182.26, 279.01 172.64 M254.17 207.32 C261.07 199.2, 269.51 190.36, 279.94 180.17 M256.67 205.48 C263.01 196.6, 270.79 188.86, 280.23 177.71 M261.7 205.99 C268.32 200.53, 272.06 193.29, 279.05 182.05 M262.46 204.43 C265.38 199.42, 270.8 195.1, 279.26 184.03 M268.64 205.67 C269.95 201.91, 275.57 195.94, 277.85 191.39 M267.68 206.21 C269.73 201.14, 273.91 197.66, 280.69 190.83 M272.56 205.08 C274.89 202.72, 276.71 198.94, 281.03 195.66 M271.87 205 C274.57 201.42, 277.15 199.4, 280.09 195.99" stroke="#eeeeee" stroke-width="0.5" fill="none"></path><path d="M-1.36 1.11 C101.22 0.14, 204.04 -0.34, 279.31 1.11 M-0.39 0.75 C106.09 -0.77, 210.35 -0.73, 279.37 0.62 M280.19 -1.36 C279.71 68.99, 280.46 135.64, 279.64 202.61 M279.32 0.52 C278.61 44.59, 279.87 89.09, 278.58 203.98 M277.47 201.84 C195.48 203.68, 111.51 204.71, 1.46 202.5 M279.21 203.23 C217.28 204.4, 154.43 203.74, -0.69 202.93 M-0.11 204.66 C-0.25 123.68, 1.07 43.84, -1.6 -1.38 M-0.17 203.37 C0.27 149.32, -0.05 94.84, -0.75 0.02" stroke="#000000" stroke-width="1" fill="none"></path></g><g transform="translate(31.5963382051047 659.3333435058594) rotate(0 42 12.5)"><text x="0" y="18" font-family="Virgil, Segoe UI Emoji" font-size="20px" fill="#000000" text-anchor="start" style="white-space: pre;" direction="ltr">Message</text></g><g transform="translate(30.26302521682345 693.3333435058594) rotate(0 95.5 76)"><text x="0" y="18.333333333333332" font-family="Virgil, Segoe UI Emoji" font-size="20px" fill="#000000" text-anchor="start" style="white-space: pre;" direction="ltr">ID (auto)</text><text x="0" y="43.666666666666664" font-family="Virgil, Segoe UI Emoji" font-size="20px" fill="#000000" text-anchor="start" style="white-space: pre;" direction="ltr">Content</text><text x="0" y="69" font-family="Virgil, Segoe UI Emoji" font-size="20px" fill="#000000" text-anchor="start" style="white-space: pre;" direction="ltr">Author</text><text x="0" y="94.33333333333333" font-family="Virgil, Segoe UI Emoji" font-size="20px" fill="#000000" text-anchor="start" style="white-space: pre;" direction="ltr">Timestamp</text><text x="0" y="119.66666666666666" font-family="Virgil, Segoe UI Emoji" font-size="20px" fill="#000000" text-anchor="start" style="white-space: pre;" direction="ltr">Offset (from 0:00)</text><text x="0" y="145" font-family="Virgil, Segoe UI Emoji" font-size="20px" fill="#000000" text-anchor="start" style="white-space: pre;" direction="ltr">Video ID</text></g><g stroke-linecap="round"><g transform="translate(11.5963382051047 686.9999694824219) rotate(0 140.36881776460447 0.5152628898620151)"><path d="M-0.09 -1.19 C46.78 -0.81, 233.5 1.86, 280.21 2.22 M-1.6 0.8 C45.71 0.8, 234.99 0.05, 282.33 0.21" stroke="#000000" stroke-width="1" fill="none"></path></g></g><g transform="translate(142.26290314651095 137.99996948242188) rotate(0 281.5 50.5)"><text x="0" y="18.25" font-family="Virgil, Segoe UI Emoji" font-size="20px" fill="#000000" text-anchor="start" style="white-space: pre;" direction="ltr">Questions</text><text x="0" y="43.5" font-family="Virgil, Segoe UI Emoji" font-size="20px" fill="#000000" text-anchor="start" style="white-space: pre;" direction="ltr">---------------</text><text x="0" y="68.75" font-family="Virgil, Segoe UI Emoji" font-size="20px" fill="#000000" text-anchor="start" style="white-space: pre;" direction="ltr">How to embed emote thumbnails in messages?</text><text x="0" y="94" font-family="Virgil, Segoe UI Emoji" font-size="20px" fill="#000000" text-anchor="start" style="white-space: pre;" direction="ltr">Should I download emote thumbnails locally? If so, when?</text></g><g stroke-linecap="round"><g transform="translate(294.26302521682345 450.3333435058594) rotate(0 131.64364193451127 -0.403959290714738)"><path d="M0.71 -0.2 C44.82 -0.06, 219.94 0.73, 263.67 0.62 M-0.38 -1.34 C43.64 -1.54, 218.24 -1.41, 262.55 -1.17" stroke="#000000" stroke-width="1" fill="none"></path></g></g><g transform="translate(381.59639924026095 425.3333435058594) rotate(0 14 12.5)"><text x="0" y="18" font-family="Virgil, Segoe UI Emoji" font-size="20px" fill="#000000" text-anchor="start" style="white-space: pre;" direction="ltr">n..1</text></g><g stroke-linecap="round"><g transform="translate(148.26302521682345 525.0000305175781) rotate(0 -0.3279458227419525 64.72763836856473)"><path d="M0.17 0.25 C0.37 21.82, 0.69 108.44, 0.48 130.13 M-1.21 -0.67 C-1.06 20.51, -0.62 106.88, -0.21 128.42" stroke="#000000" stroke-width="1" fill="none"></path></g></g><g transform="translate(153.59639924026095 577.3333435058594) rotate(0 14 12.5)"><text x="0" y="18" font-family="Virgil, Segoe UI Emoji" font-size="20px" fill="#000000" text-anchor="start" style="white-space: pre;" direction="ltr">1..n</text></g><g stroke-linecap="round" transform="translate(546.2630252168235 660.3333435058594) rotate(0 145.3333740234375 93.66668701171875)"><path d="M0 0 C0 0, 0 0, 0 0 M0 0 C0 0, 0 0, 0 0 M0.27 5.6 C1.43 4.52, 3.19 2.26, 4.28 0.26 M-0.1 6.75 C2.08 3.79, 3.9 1.84, 4.66 0.07 M0.05 12.37 C2.29 8.2, 6.59 2.91, 10.71 -1.15 M0.55 11.89 C3.26 9.57, 5.65 6.29, 10.78 0.17 M1.51 18.16 C5.58 10.88, 9.01 8.19, 14.54 -0.38 M-0.33 18.3 C4.55 13.12, 9.64 6.57, 16.18 1.1 M0.72 22.82 C6.26 19.51, 7.69 11.33, 21.4 1.09 M-0.34 23.58 C7.24 17.6, 12.14 9.74, 20.99 -1.04 M1.78 31.28 C11.95 18.61, 21.77 7.88, 26.9 0.32 M0.74 31.42 C5.64 23.62, 12.68 17.28, 25.61 1.28 M-1.72 38.62 C9.53 27.51, 15.61 17.64, 32.79 0.13 M-0.79 37.02 C7.01 29.14, 14.91 20.23, 31.26 0.25 M-0.72 44.41 C14.4 28.69, 23.31 14.58, 37.67 -1.16 M-0.35 43.33 C8.04 33.96, 16.07 24.12, 36.8 0.85 M-0.6 46.99 C10.85 34.27, 26.36 18.98, 42.27 0.28 M-1.09 49.34 C12.6 33.53, 27.43 18.38, 41.94 0.78 M-0.63 54.17 C12.79 39.93, 24 28.79, 48.21 -0.2 M0.72 54.73 C16.94 34.63, 34.56 15.22, 48.05 0.5 M0.79 61.3 C16.32 39.73, 34.96 22.23, 51.22 -1.81 M0.43 59.99 C11.12 46.42, 22.37 34.17, 53.34 -0.78 M-1.24 65.94 C19.05 48.39, 35.37 25.26, 59.91 -0.18 M-0.4 67.06 C17.35 45.31, 34.68 24.87, 57.67 0.91 M-0.15 74.16 C25.05 46.87, 46.6 15.95, 65.01 -1.52 M0.07 73.65 C14.19 56.02, 28.99 40.42, 63.77 0.27 M0.16 78.82 C26.2 48.62, 51.87 22.08, 70.13 -0.47 M-0.08 79.48 C24.46 53.48, 47.65 26.73, 67.99 0.78 M1.93 86.22 C23.99 61.44, 44.83 35.04, 73.02 -2.23 M0.14 85.01 C28.27 52.19, 57.83 17.67, 73.55 0.62 M0.27 90.21 C19.57 69, 41.62 42.84, 80.26 -0.45 M-0.66 91.46 C23.65 62.51, 49.15 35.04, 79.3 0.78 M-0.24 98.85 C27.18 65.08, 55.22 31.25, 84.61 0.69 M0.32 97.52 C32.26 59.44, 67.21 20.43, 84.98 -1.05 M0.47 104.72 C18.77 79.98, 39.68 56.19, 91.68 0.51 M0.16 103.67 C28.52 70.41, 55.35 38.54, 89.93 -0.39 M0.02 111.16 C26.87 79.3, 52.57 49.57, 97.18 -0.15 M0.21 110.36 C28.25 76.7, 55.88 42.88, 96.38 -0.04 M2.14 114.99 C30.04 85.81, 57.41 52.51, 101.74 -0.96 M0.7 114.8 C38.79 70.4, 77.39 25.91, 100.19 -0.04 M-0.56 120.54 C43.6 73.66, 83.96 25.67, 108.09 -0.1 M-0.52 120.95 C39.17 75.59, 78.51 31, 106.07 0.32 M-2 126.39 C27.36 95.59, 53.18 62.84, 111.83 -0.24 M0.62 128.29 C24.31 100.55, 49.25 72.18, 110.38 0.51 M-0.61 135.61 C33.92 94.58, 67.66 57.92, 118.06 2.2 M0.44 134 C33.96 96.75, 66.51 58.03, 115.69 -0.52 M-1.27 142.04 C46.83 84.79, 92.59 33.35, 123.33 -0.71 M-0.46 141.32 C32.26 100.67, 67.03 60.91, 122.82 -0.06 M1.24 144.99 C25.55 113.31, 54.71 82.83, 125.77 1.88 M-0.6 146.19 C39.5 102.13, 78.27 57.94, 126.88 0.62 M0.94 151.42 C41.65 107.42, 81.12 60.49, 133.5 -1.56 M-0.79 153.24 C30.43 118.4, 59.98 83.82, 131.91 -0.94 M1.49 158.15 C53.53 96.05, 108.36 36.95, 136.14 0.3 M-0.01 158.94 C40.04 110.92, 81.38 62.89, 137.31 1.08 M-1.43 163.04 C33.94 124.63, 67.26 86.52, 143.93 1.12 M-0.27 164.95 C49.99 108.51, 98.11 53.38, 143.65 0.2 M-0.44 170.08 C35.92 129.13, 74.36 87.6, 149.72 1.84 M-0.09 171.4 C49.79 112.3, 101 55.23, 147.36 -0.09 M0.02 177.12 C35.89 136.24, 72.11 94.31, 152.29 0.85 M-0.38 176.98 C44.1 128.24, 86.9 77.87, 154.63 0.38 M-0.56 182.17 C33.46 142.66, 71.82 100.95, 157.49 -0.04 M0.63 183.17 C46.36 129.91, 92.1 75.54, 158.97 -0.53 M0.17 186.63 C48.48 133.25, 99.64 74.36, 163.15 -1.61 M1.48 187.47 C54.55 129, 105 69.53, 165.19 0.25 M4.74 188.12 C62.6 122.13, 120.79 57.85, 170.76 -1.32 M6.62 188.07 C43.87 142.79, 83.02 99.27, 169.04 0.25 M12.69 188.23 C57.73 133.31, 103.26 81.33, 174.21 0.82 M11.46 188.08 C65.89 126.7, 117.49 67.04, 175.62 0.41 M15.26 186.69 C56.08 140.94, 97.72 93.63, 180.71 1.69 M16.86 188.16 C53.38 146.62, 90.5 104.64, 179.49 -0.47 M22.31 187.16 C57.77 148.55, 91.02 109.08, 186.61 -1.19 M21.61 187.39 C83.68 118.29, 142.25 49.69, 186.16 -0.24 M27.55 186.94 C87.01 118.37, 147.2 51.89, 191.76 -0.32 M26.99 187.66 C81.01 125.89, 134.88 63.3, 190.58 -0.5 M32.79 187.98 C82.94 129.57, 135.2 71.05, 194.95 -0.6 M31.54 188.37 C84.14 128.6, 134.29 71.64, 197.05 0.5 M39.44 189.39 C88.87 130.34, 139.19 71.31, 201.76 -0.27 M37.28 188.75 C75.49 145.16, 112.44 102.05, 200.93 0.74 M43.28 189.68 C80.05 148.09, 118.67 105.53, 206.89 -0.16 M42.82 188.43 C82.24 145.01, 119.32 101.35, 206.92 -0.08 M48.81 188.01 C102.58 126.96, 158.92 61.79, 211.83 -0.94 M47.98 188.73 C111.54 113.33, 176.1 40.07, 212.43 0.54 M54.25 186.99 C116.31 120.14, 176.21 50.29, 217.01 0.64 M53.41 188.88 C118.31 114.71, 182 41.55, 217.66 0.23 M60.04 186.58 C103.72 137.36, 144.6 87.46, 223.11 1.46 M59.34 188.15 C103.78 137.89, 148.78 86.31, 222.06 -0.55 M63.57 186.95 C128.03 115.39, 190.21 41.32, 229.72 -0.96 M63.57 188.65 C106.44 138.15, 149.3 89.67, 227.89 0.34 M70.99 188.89 C123.78 126.78, 175.32 66.84, 233.43 0.9 M69.99 187.59 C128.57 123.41, 185.05 57.27, 233.36 -0.32 M75.61 186.81 C126.35 130.95, 173.46 76.58, 238.93 -0.42 M75.18 188.31 C126.36 130.51, 177.61 71.04, 238.85 -0.05 M79.5 188.9 C138.35 121.1, 195.8 54.22, 243.94 1.15 M80.18 187.61 C129.92 131.78, 178.11 77.07, 243.3 0.15 M84.97 187.09 C140.23 120.18, 196.47 55.58, 250.35 1.26 M85.24 188.41 C120.72 149.06, 155.73 109.79, 248.82 -0.27 M89.99 187.11 C152.39 114.53, 216.14 44.51, 255.74 -0.53 M91.8 187.12 C151.53 118.53, 212.24 50.75, 253.79 -0.21 M96.04 188.29 C154.39 120.52, 212.91 54.31, 257.91 -1.21 M95.63 187.88 C133.02 145.81, 170.89 102.72, 259.06 1 M100.29 187.33 C138.61 144.82, 174.91 100.62, 266.7 -0.38 M101.84 188.34 C142.12 141.83, 182.09 95.45, 265.06 -0.84 M106.68 187.64 C164.4 120.85, 223.41 52.5, 269.28 -0.76 M106.61 188.93 C144.68 145.08, 183.07 102.08, 269.8 1.06 M111.54 186.77 C167.32 121.21, 222.71 57.28, 274.67 -1.14 M112.19 188.54 C174.97 112.65, 239.13 40.6, 275.75 0.46 M118 188.95 C178.7 114.8, 244.81 41.17, 282.31 -0.15 M116.79 188.84 C165.25 131.94, 211.42 78.39, 281.32 0.47 M121.58 189.24 C178.16 122.9, 235.65 56.47, 287.32 0.96 M123.1 188.29 C167.59 134.78, 214.08 83.27, 286.11 -0.66 M127.87 189.43 C172.87 136.83, 215.29 86.51, 291.58 1.12 M128.08 188.17 C172.88 137.68, 215.92 87.61, 290.58 -0.22 M134.84 188.71 C174.92 139.42, 217.78 90.18, 290.02 6.69 M133.18 188.17 C189.64 122.26, 247.75 55.19, 290.47 6.43 M137.35 189.67 C175.53 144.03, 211.57 102.05, 290.32 13.14 M139.1 187.47 C177.47 146.17, 213.3 103.79, 291.63 12.38 M145.92 188.98 C197.37 128.47, 245.57 70.51, 291.86 18.3 M144.36 187.04 C193.91 130.02, 243.02 72.42, 290.41 19.18 M147.61 186.64 C195.59 135.62, 245.59 79.94, 291.55 26.14 M148.37 187.32 C187.58 143.43, 227.31 97.53, 291.59 25.32 M155.16 187.85 C182.26 154.82, 209.18 123.71, 291.89 31.1 M154.58 187.94 C189.57 149.17, 223.81 109.17, 290.8 31.18 M159.96 187.82 C210.53 132.41, 261.82 74.38, 292.42 38.03 M159.62 188.37 C191.3 152.34, 223.24 115.67, 291.7 36.47 M165.06 187.81 C200.21 144.62, 236.71 106.4, 290.52 42.82 M165.48 188.28 C213.86 134.44, 262.59 77.95, 291.38 43.78 M172.29 186.65 C195.95 158.38, 220.36 131.2, 290.4 49.29 M169.52 187.67 C194.32 161.1, 219.05 132.56, 290.36 50.09 M176.25 186.66 C203.07 162.01, 227.26 130.44, 290.32 56.36 M174.58 187.56 C222.26 136.14, 266.44 84.2, 291.84 56.04 M181.69 187.64 C208.11 159, 231.7 125.46, 290.52 60.37 M180.37 187.65 C206.85 160.08, 232.48 129.82, 291.77 61.09 M186.21 188.94 C208.32 161.73, 231.05 137.48, 292.1 69.15 M186.24 188.42 C224.4 146.19, 261.65 103.46, 291.77 67.47 M193.56 187.38 C223.65 152.07, 252.89 118.18, 289.63 72.78 M192.43 187.05 C230.65 144.56, 269.83 99.51, 291.64 74.87 M196.33 187.29 C225.4 153.58, 258.01 116.76, 293.21 77.82 M196.78 187.54 C230.14 151.2, 262.12 113.13, 291.48 78.76 M201.27 186.49 C227.12 162.06, 248.52 132.2, 290.43 85.62 M202.03 188.57 C234.9 150.88, 267 114.28, 291.61 86.6 M207.98 186.33 C237.81 150.18, 270.03 113.19, 291.04 90.99 M206.51 187.61 C225.8 166.59, 244.5 148.04, 291.28 92.59 M214.2 189.61 C239.06 156.46, 264.94 129.91, 289.64 96.27 M213.47 186.88 C228.86 169.86, 244.6 151.88, 291.34 97.71 M218.54 186.68 C235.05 171.71, 249.92 155.19, 290.31 106.04 M217.74 187.33 C236.57 168.04, 253.09 147.29, 290.84 104.41 M221.72 189.36 C245.21 162.33, 269.15 135.33, 292.62 109.37 M223.06 188.67 C250.21 158.46, 275.98 128.23, 291.12 110.9 M229.37 188.97 C242.75 173.12, 257.92 153.94, 289.7 118.09 M228.78 187.37 C245.82 167.54, 264.27 145.8, 291.77 117.4 M233.21 186.35 C250.17 167.6, 269.5 148.1, 292.76 121.52 M235.13 188.63 C257.35 162.23, 278.45 136.17, 291.28 122.86 M237.85 189.83 C256.27 168.9, 269.98 153.63, 289.93 128.51 M239.95 188.43 C252.57 173.61, 265.3 159.01, 291.74 129 M246.04 189.23 C257.37 174.04, 267.68 159.35, 290.77 134.13 M243.98 187.46 C256.72 174.34, 269.44 160.51, 291.47 135.02 M249.37 189.88 C257.64 178.06, 268.1 166.55, 292.37 141.94 M249.56 187.19 C264.46 170.5, 280.24 152.62, 291.05 139.89 M253.58 186.6 C262.62 176.45, 272.96 166.23, 289.34 146.29 M255.92 187.82 C265.82 177.12, 276.26 163.7, 291.32 146.57 M261.29 189.74 C267 180.58, 275.74 171.59, 290.41 150.99 M259.92 188.34 C269.56 176.12, 279.78 166.21, 292.02 152.77 M264.57 187.86 C274.75 180.46, 282 170.56, 289.19 159.39 M264.62 189.18 C274.04 179.03, 282.31 169.38, 290.49 158.95 M270.99 186.04 C274.35 183.15, 280.3 179.08, 292.76 165.05 M271.34 188.56 C278.52 179.31, 285.05 172.56, 290.3 165.07 M277.67 188.11 C278.61 183.19, 282.78 179.06, 291.7 170.06 M275.69 188.7 C280.54 185, 283.86 179.82, 291.27 170.84 M280.43 187.58 C283.69 185.62, 286.55 180.27, 290.37 178.69 M282.03 188.38 C285.56 184.47, 288.51 180.6, 291.36 177.81 M286.37 188.48 C288.24 187.1, 289.89 185.12, 290.97 183.01 M286.78 188.16 C288.47 186.56, 289.66 184.79, 291.59 183.01 M0.07 187.4 C0.07 187.4, 0.07 187.4, 0.07 187.4 M0.07 187.4 C0.07 187.4, 0.07 187.4, 0.07 187.4 M6.64 186.79 C3.01 185.92, 1.77 183.92, -0.92 181.52 M6.84 188.09 C4.67 186.15, 3.32 184.89, -0.56 182.12 M13.28 187.19 C8.49 183.68, 3.53 178.54, -1.49 176.16 M12.16 187.79 C9.61 184.84, 6.83 182.17, 0.69 176.05 M18.01 188.89 C13.87 186.13, 11.1 182.21, 0.9 169.68 M18.82 186.92 C14.58 184.77, 10.24 179.11, 0.53 170.45 M25.55 187.38 C14.92 178.46, 7.23 174.11, -1.42 165.9 M24.38 187.24 C15.96 179.06, 7.84 173.44, 0.62 166.31 M32.14 186.3 C23.45 181.34, 14.17 175.05, 0.36 162.83 M31.3 186.9 C17.97 177.27, 7.69 166.58, -0.47 161.26 M38.94 187.81 C22.85 173.31, 6.83 163.56, -1.12 155.16 M35.98 187.72 C23.14 177.33, 10.62 165.07, -0.07 154.85 M42.62 186.59 C26.89 173.12, 14.86 159.52, 0.59 152.03 M43.07 187.24 C27.11 174.26, 12.1 158.89, 0.97 150.37 M49.6 187.77 C29.81 171.35, 13.37 154.62, 0.4 144.44 M49.75 186.75 C37.9 178.07, 24.7 167.83, -0.92 144.19 M54.81 186.38 C37.5 171.51, 17.98 156.19, -0.27 138.53 M54.43 186.63 C40.05 175.92, 26.13 162.48, -0.09 139.11 M59.67 188.55 C43.37 172.59, 23.29 156.07, 0.5 134.34 M60.78 187.66 C40.06 170.25, 20.35 152.91, 0.38 135.01 M66.85 186.96 C51.28 176.68, 37.61 163.02, -0.85 130.98 M66.46 188.41 C45.93 170.03, 24.49 150.61, 0.67 130.18 M74.51 186.77 C60.35 175.53, 45.08 162.08, 0.58 125.49 M73.37 187.16 C53.21 170.17, 34.76 153.92, 0.16 124.01 M78.6 187.63 C60.92 170.24, 39.75 152.87, 0.22 117.99 M79.94 187.95 C63.22 173.25, 48.19 159.76, -0.45 118.27 M83.51 187.05 C58.73 164.15, 29.76 140.17, -2.01 114.51 M85.84 187.92 C58.31 163.86, 31.4 139.65, 0.72 113.86 M92.19 185.68 C67.35 166.19, 47.27 148.39, 0.32 108.19 M91.97 186.6 C56.66 157.65, 20.89 125.8, 0.86 108.06 M96.79 186.68 C71.99 166.06, 42.92 142.41, -1.88 102.04 M97.25 187.28 C62.99 156.74, 25.99 126.62, 0.38 103.26 M105 185.73 C78.96 163.36, 50.25 138.38, 0.83 98.21 M102.83 187.04 C65.99 155.24, 30.25 122.89, 0.93 98.23 M110.23 188.96 C75.62 158.61, 44.93 129.48, -1.65 92.7 M110.4 186.64 C80.65 162.11, 51.36 135.48, -0.56 90.89 M114.4 188.4 C81.21 155.41, 42.29 125.15, -0.89 88.66 M114.86 187.97 C74.13 149.03, 30.34 112.2, 0.06 87.49 M121.94 187.19 C95.35 162.79, 67.27 137.83, 0.04 79.11 M122.37 187.31 C84.09 155.44, 48.35 123.43, 0.22 81.44 M126.52 186.99 C99 161.52, 68.3 137.27, 0.55 76.18 M129.1 186.72 C90.83 154.44, 53.92 122.19, 0.57 76.51 M133.3 185.98 C95.99 155.68, 55.21 120.61, 0.57 69.89 M133.47 188.01 C90.42 147.95, 47.12 111.01, -0.97 69.6 M141.23 188.79 C104.34 159.23, 69.07 128.64, -1.48 65.39 M140.38 186.68 C86.97 140.13, 31.93 94.02, 0.77 65.98 M145.7 185.95 C96.02 144.81, 51.06 102.57, 1.32 61.68 M146 187.4 C114.97 159.8, 82.39 133.26, 0.19 60.05 M152.63 187.13 C92.4 134.48, 31.25 81.71, -1.44 53.11 M151.82 187.21 C100.47 141.73, 50 99.15, 0.87 54.62 M157.45 188.31 C103.33 139.14, 46.82 89.35, -0.35 50.87 M159.02 186.94 C120.49 153.59, 83.04 121.75, -0.04 49.46 M165.95 186.63 C115.67 143.78, 63.2 97.79, 1.34 43.48 M163.65 186.96 C99.09 131.62, 33.31 74.84, -0.46 44.93 M171.7 188.47 C135.16 153.82, 100.98 125.15, 1.52 39.39 M171.32 187.67 C125.96 149.93, 82.17 111.23, -0.34 39.26 M175.37 187.63 C139.83 153.84, 101.89 122.52, 1.13 33.43 M176.11 186.66 C132.78 149.44, 89.67 111.37, 0.51 33.92 M183.46 187.84 C123.86 136.68, 65.32 83.85, -0.47 29.73 M182.25 187.34 C118.95 130.42, 54.38 73.57, -0.27 28.71 M189.66 187.88 C123.9 131.76, 59.15 74.77, -0.68 23.49 M190.13 187.53 C123.76 131.66, 56.94 73.11, 0.55 22.29 M194.06 186.98 C130.69 133.46, 67.19 75.96, -0.96 16.39 M195.42 186.57 C118.21 121.44, 43.29 55.29, 1.08 17.39 M201.7 186.72 C133.24 128.45, 66.83 69.96, 0.31 11 M201.23 187.16 C123.9 120.97, 48.1 54.57, -0.01 12.22 M207.78 186.42 C153.9 139.94, 99.15 94.75, 0.98 6.44 M207.74 187.51 C159.92 148.66, 114.39 107.51, 0.71 7.46 M213.42 188.38 C170.2 150.33, 125.7 109.89, -1.22 2.78 M213.65 186.79 C127.54 113.87, 42.16 40.12, -0.87 1.02 M220.11 187.24 C146.11 125.92, 72.53 62.4, 1.65 -1.68 M220.27 188.15 C146.55 123.59, 71.66 58.8, 2.04 -2.39 M225.88 187.17 C182.13 148.66, 136.75 108.55, 7.22 -2.78 M226.03 186.93 C166.42 135.23, 104.72 82.66, 8.01 -2 M230.69 188.57 C187.68 149.03, 142.9 110.54, 14.29 -2.62 M231.8 187.79 C187.77 149, 143.93 109.97, 14.34 -2.22 M237.09 186.62 C159.28 122.35, 86.51 56.32, 19.06 -3.03 M237.12 186.57 C174.8 133.04, 111.58 78.12, 20.8 -1.78 M244.3 188.53 C182.25 133.45, 120.02 82.04, 26.35 -2.05 M243.27 187.58 C182.39 134.87, 122.13 81.44, 25.78 -2.2 M248.85 187.86 C190.48 138.55, 130.92 86.2, 31.58 -0.78 M250.93 186.91 C185.7 132.91, 121.07 75.4, 32.45 -2.58 M255.96 187.6 C210.46 146.4, 165.12 105.17, 39.6 -1.86 M256.44 186.53 C203.95 140.77, 152.27 95.72, 38.85 -1.16 M263.68 187.04 C218.62 147.36, 172.07 104.97, 42.81 -1.58 M261.65 187.15 C181.5 117.73, 99.52 46.25, 44.72 -2.38 M266.7 186.25 C221.63 145.28, 173.74 105.23, 50.57 -2.89 M268.53 186.67 C191.85 120.41, 116.35 53.83, 50.76 -1.4 M274.35 188.29 C187.79 112.9, 100.37 38.69, 56.79 -1.96 M274.79 186.94 C191.01 114.5, 107.15 40.86, 56.33 -2.18 M281.32 188.61 C209.55 125.52, 135.88 62.69, 64.05 -1 M280.53 187.66 C220.14 135.67, 158.91 83.27, 62.51 -1.75 M287.92 186.06 C230.99 140.59, 176.05 91.78, 69.29 -0.79 M286.07 186.82 C242.93 148.37, 198.44 110.9, 69.78 -2.29 M291.82 186.52 C206 112, 121.02 38.23, 75.07 -1.74 M291.16 185.9 C226.53 132, 161.59 76.41, 74.32 -1.68 M292.61 180.93 C248.48 144.96, 203.37 103.88, 79.8 -1.92 M291.96 181.4 C230.94 125.94, 171.09 74.14, 80.78 -2.02 M290.91 176.25 C246.35 137.86, 202.4 100.98, 87.69 -1.61 M290.83 176.21 C233.24 127.54, 177.39 78.1, 86.44 -2.19 M290.88 171.75 C227.97 114.46, 165.11 59.26, 93.22 -1.17 M291.14 171.01 C227.71 116.44, 164.14 59.59, 93.35 -1.67 M290.17 164.34 C244.07 121.32, 195.81 80.76, 100.68 -2.63 M291.95 165.24 C237.49 117.99, 184.5 71.94, 99.9 -2.14 M292.29 160.42 C221.83 97.78, 148.66 37.28, 104.4 -1.12 M292.3 159.14 C223.29 101.03, 156.29 42.4, 104.62 -2.3 M290.76 154.49 C235.9 105.74, 178.54 56.53, 110.27 -2.42 M291.58 155.09 C223.07 96.08, 154.84 37.28, 111.83 -2.27 M291.55 150.63 C246.06 111.16, 201.66 72.17, 117.66 -1.33 M290.8 149.61 C241.23 104.87, 191.13 61.62, 116.43 -1.72 M290.56 143.99 C248.82 104.81, 207.37 71.23, 125.08 -3.04 M291.56 142.98 C249.97 107.36, 210.93 72.68, 123.2 -1.27 M293.14 139.58 C233.25 88.51, 176.5 40.96, 131.68 -0.62 M291.92 138 C232.97 89.38, 175.72 40.51, 129.85 -2.08 M290.71 133.33 C248.38 97.02, 207.09 57.5, 136.14 -0.47 M290.44 132.91 C238.23 88.74, 186.29 42.55, 136 -2 M291.27 127.68 C243.74 86.53, 196.71 44.94, 142.6 -3.47 M290.69 128.38 C256.31 97.85, 218.82 66.22, 141.93 -2.46 M293.38 123.8 C260.04 95.55, 227.22 66.51, 148.05 -1.07 M290.89 122.65 C244.23 82.54, 196.36 41.16, 146.91 -2.15 M290.65 119.4 C240.17 72.61, 188.03 26.59, 155.95 -0.92 M291.13 117.78 C261.72 92.24, 231.41 66.62, 153.66 -1.28 M290.51 110.63 C246.34 74.26, 201.21 33.1, 158.99 -0.34 M292.06 111.52 C252.8 76.76, 212.32 44.62, 160.82 -2.29 M292.87 107.5 C247.37 68.52, 199.96 25.39, 165.33 -0.17 M291.59 106.78 C248.38 69.63, 207.22 32.16, 165.32 -1.89 M292.17 103.15 C262.43 75.15, 229.64 49.8, 172.9 -2.77 M290.91 100.83 C256.72 70.71, 218.91 39.39, 172.58 -1.05 M291.31 96.6 C255.74 67.35, 224.67 36.97, 180.12 -0.62 M290.41 96.08 C256.87 66.91, 223.9 37.18, 177.24 -1.61 M291.73 89.98 C250.97 55.14, 209.56 18.9, 183.91 -3.07 M291.76 91.29 C269.48 70.64, 245.33 51.4, 185.24 -1.07 M291.34 87.32 C267.44 67.48, 247.72 43.77, 190.43 -0.96 M291.88 86.36 C258.16 56.21, 223.11 26.86, 190.48 -1.1 M290.57 79.76 C257.6 50.27, 221.71 17.93, 197.37 -0.62 M290.93 79.57 C262.2 56.67, 233.81 29.62, 197.12 -1.67 M290.33 76.3 C257.79 47.38, 227.17 17.74, 204.15 -1.9 M292.32 74.32 C262.42 47.63, 231.54 21.91, 203.83 -0.98 M290.06 69.1 C271.49 54.74, 251.35 34.21, 206.68 -2.79 M290.73 70.37 C271.21 53.75, 250.58 36.5, 208.53 -2.16 M289.67 64.16 C263.96 39.38, 236.45 14.74, 215.4 -2.15 M292.05 64.63 C263.67 38.75, 234.78 14.31, 214.38 -1.91 M291.58 58.63 C274.97 47.7, 260.37 33.13, 221.97 -0.3 M291.46 58.37 C271.18 40.4, 251.83 23.27, 220.54 -1.2 M290.72 55.52 C275.71 40.39, 257.89 25.21, 225.55 -1.08 M291.36 53.99 C271.09 37.36, 251.47 20.1, 226.42 -1.2 M292.51 48.97 C272.34 31.77, 251.23 15.14, 235.09 -1.84 M291.44 48.26 C273.01 31.31, 253.93 16.58, 233.95 -1.41 M290.87 43 C280 33.43, 266.09 21.98, 239.98 -2.07 M290.59 43.08 C281.45 34.37, 269.15 23.89, 238.28 -2.17 M290.22 36.75 C278.94 26.16, 269.7 19.02, 244.17 -2.13 M290.99 38.72 C282.81 28.92, 272.59 21.74, 245.84 -1.45 M291.48 31.24 C275.74 19.08, 263.1 8.33, 252.82 0.15 M292.03 32.59 C277.25 19.72, 264.63 9.45, 251.03 -1.46 M290.08 26.6 C277.19 17.03, 267.55 3.19, 258.6 -0.55 M292.41 26.45 C283.87 21.54, 276.56 14.44, 258.5 -2.63 M289.93 20.85 C283.73 14.47, 276.57 10.31, 263.94 -3.09 M292.01 21.21 C280.14 12.27, 270.85 4.7, 263.45 -1.7 M293.47 15.13 C284.57 10.3, 277.91 3.19, 267.74 -0.46 M292.02 16.14 C286.92 13.57, 281.83 9.37, 270.27 -2.27 M292.36 13.12 C287.04 6.85, 278.81 2.35, 275.45 -2.51 M291.59 12.28 C284.93 6.26, 280.01 -0.16, 276.63 -1.56 M290.45 6.64 C287.13 3.09, 285.79 0.94, 282.01 -1.05 M291.87 6.32 C289.67 4.65, 287.28 1.9, 282.29 -1.31 M291.54 0.69 C290.59 0.1, 288.95 -0.7, 288.24 -1.99 M291.78 1.14 C290.72 0.19, 290.17 -0.59, 288.27 -2.2" stroke="#eeeeee" stroke-width="0.5" fill="none"></path><path d="M1.25 -0.49 C91.47 -0.34, 184.21 0.02, 289.56 -0.25 M-0.08 -0.32 C58.85 0.38, 118.03 0.76, 291.4 0.24 M289.42 -1.78 C290.89 58.14, 290.81 114.4, 289.08 189.06 M291.61 0.52 C288.21 55.14, 289.93 109.26, 290.19 186.93 M292.08 186.84 C177.71 188.78, 62.19 188.6, 0.49 187.69 M289.98 187.73 C178.93 186.37, 67.17 186.7, 0.09 187.02 M-0.5 186.38 C-1.82 145.98, -1.56 101.32, 1.18 0.77 M0.22 186.67 C-0.83 149.01, -0.23 110.9, 0.95 -0.24" stroke="#000000" stroke-width="1" fill="none"></path></g><g transform="translate(554.9297732636985 668.0000305175781) rotate(0 30.5 12.5)"><text x="0" y="18" font-family="Virgil, Segoe UI Emoji" font-size="20px" fill="#000000" text-anchor="start" style="white-space: pre;" direction="ltr">Emote</text></g><g transform="translate(554.2630252168235 706.6667175292969) rotate(0 104.5 63.5)"><text x="0" y="17.4" font-family="Virgil, Segoe UI Emoji" font-size="20px" fill="#000000" text-anchor="start" style="white-space: pre;" direction="ltr">ID</text><text x="0" y="42.8" font-family="Virgil, Segoe UI Emoji" font-size="20px" fill="#000000" text-anchor="start" style="white-space: pre;" direction="ltr">Shortcut (text form)</text><text x="0" y="68.19999999999999" font-family="Virgil, Segoe UI Emoji" font-size="20px" fill="#000000" text-anchor="start" style="white-space: pre;" direction="ltr">URL</text><text x="0" y="93.6" font-family="Virgil, Segoe UI Emoji" font-size="20px" fill="#000000" text-anchor="start" style="white-space: pre;" direction="ltr">Image? (Binary)</text><text x="0" y="119" font-family="Virgil, Segoe UI Emoji" font-size="20px" fill="#000000" text-anchor="start" style="white-space: pre;" direction="ltr">Channel ID</text></g><g stroke-linecap="round"><g transform="translate(546.2630252168235 697.6667175292969) rotate(0 144.89360475190915 0.7189328306783409)"><path d="M1.02 1.13 C48.84 1.12, 239.39 0.13, 287.33 0.23 M0.1 0.68 C48.28 0.75, 241.67 1.37, 289.69 1.18" stroke="#000000" stroke-width="1" fill="none"></path></g></g><g stroke-linecap="round"><g transform="translate(690.9297732636985 529.0000305175781) rotate(0 0.05248774935671463 65.4268028735695)"><path d="M-0.84 -0.41 C-0.67 21.67, -0.17 110.49, -0.14 132.52 M0.92 -1.67 C1.14 20.05, -0.12 108.23, -0.47 130.67" stroke="#000000" stroke-width="1" fill="none"></path></g></g><g transform="translate(696.9297732636985 588.6667175292969) rotate(0 14 12.5)"><text x="0" y="18" font-family="Virgil, Segoe UI Emoji" font-size="20px" fill="#000000" text-anchor="start" style="white-space: pre;" direction="ltr">1..n</text></g></svg>