<svg version="1.1" xmlns="http://www.w3.org/2000/svg" viewBox="0 0 1756.2283961549206 868.3333435058594" width="1756.2283961549206" height="868.3333435058594">
  <!-- svg-source:excalidraw -->
  
  <defs>
    <style>
      @font-face {
        font-family: "Virgil";
        src: url("https://excalidraw.com/Virgil.woff2");
      }
      @font-face {
        font-family: "Cascadia";
        src: url("https://excalidraw.com/Cascadia.woff2");
      }
    </style>
  </defs>
  <rect x="0" y="0" width="1756.2283961549206" height="868.3333435058594" fill="#f1f3f5"></rect><g transform="translate(146.9299563691672 10) rotate(0 193.5 50.5)"><text x="0" y="18.25" font-family="Virgil, Segoe UI Emoji" font-size="20px" fill="#000000" text-anchor="start" style="white-space: pre;" direction="ltr">Requirements</text><text x="0" y="43.5" font-family="Virgil, Segoe UI Emoji" font-size="20px" fill="#000000" text-anchor="start" style="white-space: pre;" direction="ltr">-----------------</text><text x="0" y="68.75" font-family="Virgil, Segoe UI Emoji" font-size="20px" fill="#000000" text-anchor="start" style="white-space: pre;" direction="ltr">Download video stream chat messages.</text><text x="0" y="94" font-family="Virgil, Segoe UI Emoji" font-size="20px" fill="#000000" text-anchor="start" style="white-space: pre;" direction="ltr">Store in database or text.</text></g><g stroke-linecap="round" transform="translate(16.6917971894797 368.6253356933594) rotate(0 139.27903862694296 77.04129028320312)"><path d="M1.4 0.16 C84.61 -1.9, 168.45 -2.01, 277.71 -1.02 M-0.2 -0.66 C79.24 -0.94, 157.82 -0.74, 278.65 -0.12 M279.89 0.48 C277.31 40.46, 277.08 81.06, 277.57 152.29 M278.31 -0.7 C277.44 61.22, 278.46 120.85, 278.81 154.22 M277.81 154.95 C197.73 156.11, 117.05 156.6, 1.37 153.25 M278.08 153.51 C176.98 155.01, 76.99 154.56, 0.49 154.82 M1.24 153.17 C-0.03 93.99, -2.89 34.52, -1.99 1.24 M-0.68 154.75 C0.72 122.07, 0.88 91.8, -0.27 0.21" stroke="#000000" stroke-width="1" fill="none"></path></g><g stroke-linecap="round"><g transform="translate(19.192900935293096 408.3861631066868) rotate(0 139.3275405867789 -0.9007959714772369)"><path d="M1.1 0.13 C47.6 -0.35, 232.21 -1.57, 278.44 -1.93 M0.21 -0.85 C46.66 -1.23, 231.52 -0.47, 277.84 -0.47" stroke="#000000" stroke-width="1" fill="none"></path></g></g><g transform="translate(31.59639924026095 375.99993896484375) rotate(0 25 12.5)"><text x="0" y="18" font-family="Virgil, Segoe UI Emoji" font-size="20px" fill="#000000" text-anchor="start" style="white-space: pre;" direction="ltr">Video</text></g><g transform="translate(32.92977326369845 414.6666259765625) rotate(0 54.5 38)"><text x="0" y="18.333333333333332" font-family="Virgil, Segoe UI Emoji" font-size="20px" fill="#000000" text-anchor="start" style="white-space: pre;" direction="ltr">ID</text><text x="0" y="43.666666666666664" font-family="Virgil, Segoe UI Emoji" font-size="20px" fill="#000000" text-anchor="start" style="white-space: pre;" direction="ltr">Title</text><text x="0" y="69" font-family="Virgil, Segoe UI Emoji" font-size="20px" fill="#000000" text-anchor="start" style="white-space: pre;" direction="ltr">Channel ID</text></g><g stroke-linecap="round" transform="translate(558.6917971894798 379.2919921875) rotate(0 135.06076049804688 74.70797729492188)"><path d="M-0.3 0 C55.72 -0.33, 114.32 -0.48, 268.61 1.4 M-0.66 -0.71 C66.51 -1.21, 133.1 -1.39, 270.48 0.47 M270.94 0.84 C271.1 51.62, 268.83 100.78, 270.99 148.09 M269.14 -0.17 C269.77 38.23, 270.89 77.83, 269.68 148.88 M271.55 149.59 C194.01 150.3, 117.03 148.67, 1.11 150.49 M270.36 149.94 C186.31 147.49, 104.07 147.9, -0.01 149.34 M-1.56 150.95 C-0.59 91.08, 0.66 37.69, 0.04 0.82 M0.98 149.44 C1.89 106.93, 0.81 63.83, -0.55 0.59" stroke="#000000" stroke-width="1" fill="none"></path></g><g stroke-linecap="round"><g transform="translate(561.117151193386 417.8486022949219) rotate(0 134.2381758607272 -0.7917786966684162)"><path d="M-0.23 0 C44.51 -0.31, 223.29 -1.31, 268.19 -1.59 M-1.8 -1.05 C43.29 -1.17, 225.25 -0.1, 270.28 0.01" stroke="#000000" stroke-width="1" fill="none"></path></g></g><g transform="translate(570.929895334011 387.9999694824219) rotate(0 36.5 12.5)"><text x="0" y="18" font-family="Virgil, Segoe UI Emoji" font-size="20px" fill="#000000" text-anchor="start" style="white-space: pre;" direction="ltr">Channel</text></g><g transform="translate(572.929895334011 426.6666259765625) rotate(0 26 25.5)"><text x="0" y="17.5" font-family="Virgil, Segoe UI Emoji" font-size="20px" fill="#000000" text-anchor="start" style="white-space: pre;" direction="ltr">ID</text><text x="0" y="43" font-family="Virgil, Segoe UI Emoji" font-size="20px" fill="#000000" text-anchor="start" style="white-space: pre;" direction="ltr">Name</text></g><g stroke-linecap="round" transform="translate(13.5963382051047 654.9999694824219) rotate(0 139.33334350585938 101.66668701171875)"><path d="M0 0 C0 0, 0 0, 0 0 M0 0 C0 0, 0 0, 0 0 M-0.26 6.29 C1.43 4.9, 3.58 2.14, 4.39 -0.12 M-0.12 6.67 C0.95 4.77, 2.06 3.46, 4.91 -0.01 M-0.62 11.81 C4.96 9.63, 5.43 3.47, 12.09 1.36 M0.03 12.29 C3.58 7.67, 7.98 4.07, 11.39 0.17 M-0.64 20.29 C3.21 14.14, 8.64 6.07, 14.93 1.15 M0.56 17.62 C5.79 12.8, 11.53 4.53, 15.74 0.91 M-1.51 22.09 C5.58 17.14, 9.19 9.82, 20.68 0.28 M0.73 23.33 C9.12 13.94, 17.47 6.16, 20.5 -0.32 M-0.31 30.96 C6.11 20.67, 15.94 11.88, 24.28 1.45 M-0.89 30.7 C8.96 19.34, 18.33 8.74, 26.7 -0.48 M-0.46 35 C11.75 22.95, 25.46 9.02, 30.49 0.48 M0.54 36.45 C10.75 22.67, 22.59 10.53, 32.07 0.13 M2.12 42.76 C9.58 34.95, 16.66 21.95, 36.91 0.7 M0.08 43.02 C10.22 31.36, 19.87 19.79, 35.97 -0.04 M1.03 49.59 C16.15 29.99, 28.4 14.71, 43.28 -1.07 M-0.92 48.89 C14.55 34.08, 27.87 17.22, 42.61 0.24 M0.01 56.31 C16.93 34.38, 31.82 18.46, 46.2 -0.49 M-0.24 55.26 C17.61 36.67, 32.29 17.86, 47.86 0.92 M-0.34 59.25 C20.06 38.56, 42.34 15.07, 52.4 0.25 M-0.01 60.1 C19.07 40.4, 37.8 17.94, 52.44 0.71 M-1.92 68.99 C14.66 49.45, 32.95 29.16, 57.51 -1.49 M-0.18 66.86 C16.58 46.71, 33.95 27.45, 58.7 1.08 M0.83 72.6 C18.74 53.32, 37.66 28.97, 63.25 1.08 M-0.42 72.75 C21.18 48.87, 41.12 24.99, 63.86 0.22 M-0.97 79.91 C17.64 55.59, 36.81 34.09, 68.23 -1.68 M-0.12 79 C24.67 51.78, 49.81 21.41, 68.78 1.12 M1.9 86.26 C24.12 56.61, 52.01 27, 73.18 -1.96 M0.18 85.55 C22.22 59.21, 46.35 32.44, 75.19 -0.53 M-0.43 90.47 C29.53 56.63, 59.53 23.91, 79.72 -0.43 M-0.4 91.13 C16.4 70.37, 34.21 51.77, 78.43 -0.25 M-0.4 97.62 C26.24 68.01, 57.19 32.48, 83.58 -0.26 M-0.56 97.93 C29.82 63.16, 61.41 26.77, 84.73 -0.86 M1.07 105.27 C33.13 66.5, 67.51 26.86, 89.37 -1.11 M-0.72 103.92 C29.46 69.28, 60.42 32.38, 89.95 -0.36 M0.6 109.78 C28.03 75.69, 57.2 44.38, 95.83 -1.17 M-1.02 109.07 C34.78 71.2, 70.56 30.61, 94.81 -0.08 M0.92 116.96 C31.58 75.72, 64.46 40.77, 102.55 0.9 M1.25 116.08 C39.07 71.56, 78.62 25.09, 99.67 -0.52 M1.64 120.14 C30.59 87.04, 60.17 50.58, 107.29 -0.09 M0.46 122.41 C40.21 75.57, 80.68 29.55, 105.74 0.5 M-0.17 126.9 C26.91 96.51, 58.49 59.49, 112.64 -1.78 M-0.84 129.03 C27.94 96.84, 54.93 64.65, 111.88 -0.04 M0.08 133.31 C38.48 87.76, 74.61 44.25, 114.68 0.38 M0.19 134.65 C30.59 97.65, 63.18 60.3, 117.16 0.31 M0.49 142.21 C26.35 110.63, 51.66 81.52, 121 -0.52 M0.63 139.97 C43.33 90.11, 86.88 40.18, 122.91 -0.23 M1.3 145.92 C28.51 113.14, 61.81 75.13, 128.7 -0.65 M0.48 146.46 C41.98 97.75, 82.96 49.69, 126.71 0.54 M-0.35 152.29 C54 91.13, 103.65 31.81, 132.97 1.16 M-0.6 152.33 C29.21 118.7, 56.76 87.9, 133.01 -0.37 M-1.78 159.28 C35.17 115.46, 72.08 75.21, 138 1.97 M-0.92 159.23 C53.1 95.93, 109.36 31.19, 137.99 0.59 M-1.22 165.55 C38.73 121.37, 76.62 78.78, 142.21 0.27 M-0.37 164.74 C37.68 121.21, 75.35 77.25, 142.72 0.09 M0.77 172.44 C33.37 131.29, 70.2 94.47, 148.14 1.35 M-0.57 170.39 C53.21 108.9, 106.8 47.17, 147.57 1.12 M-1 175.36 C37.49 134.81, 72.8 95.05, 153.56 0.95 M-0.28 176.12 C62.32 105.45, 122.54 35.4, 153.97 0 M-1.06 183.3 C58.65 115.79, 119.39 48.38, 160.05 1.7 M-0.66 182.96 C44.58 131.03, 88.81 81.39, 159.22 0.98 M0.67 189.85 C57.82 122.13, 115.36 57.86, 164.69 0.31 M-0.71 189.5 C42.89 138.51, 86.26 88.92, 165.22 -0.01 M0.68 195.79 C53.7 135.71, 105.61 76.04, 168.24 0.22 M0.73 194.15 C37.24 151.87, 75.63 109.91, 169.78 0.78 M-0.32 201.3 C37.41 156.85, 78.01 110.57, 173.54 -1.03 M-0.12 200.64 C59.94 128.77, 122.02 58.52, 175.16 0.57 M2.46 204.87 C51.88 147.02, 103.48 86.81, 180.34 0.68 M2.56 203.93 C48.68 152.48, 95.81 99.28, 179.58 -0.5 M6.99 205.95 C63.05 141.53, 115.26 80.66, 184.41 0.55 M6.72 205.74 C64.64 141.81, 120.92 76.88, 185.66 -0.84 M11.37 204.29 C70.43 140.04, 128.64 71.75, 191.02 0.36 M12.61 205.95 C57.83 151.11, 104.82 96.46, 190.45 0.81 M16.58 205.65 C58.09 162.2, 96.61 117.48, 195.19 -0.75 M17.69 205.14 C57.3 158.7, 97.38 112.23, 196.95 -0.58 M24.37 205.93 C68.04 149.21, 118.25 94.16, 201.38 -0.25 M22.35 205.96 C77.42 143.83, 130.69 83.17, 201.05 0.55 M29.36 204.67 C100.08 124.62, 167.9 43.66, 206.96 -1.32 M28.2 204.72 C91.54 133.43, 154.13 60.49, 207.7 0.33 M32.52 204.79 C94.95 136.35, 154.61 68.17, 212.5 -0.66 M32.91 205.25 C75.32 158.05, 116.49 110.46, 211.62 0.82 M40.17 203.49 C84.36 153.94, 129.25 101.1, 217.69 -0.68 M38.5 205.03 C103.13 129.23, 167.85 54.46, 218.16 -0.7 M43.13 204.48 C108.35 133.04, 171.08 59.98, 222.32 -0.39 M44.55 205.92 C105.63 135.06, 167.39 64.46, 222.42 0.58 M50.07 205.73 C94.26 156.14, 137.81 104.12, 228.44 -1.44 M50.37 205.02 C108.95 137.15, 169.22 67.92, 228.57 -0.01 M54.15 205.49 C120.29 127.33, 188.37 51.27, 231.93 1.06 M54.39 205.38 C105.78 145.23, 158.59 85.08, 233.68 0.38 M60.14 205.63 C131.88 122.02, 204.12 40.55, 239.63 0.75 M60.96 205.25 C119.13 137.31, 177.33 70.29, 238.52 0.57 M66.66 205.19 C103.66 162.28, 143.03 119.71, 242.38 1.04 M65.78 205.73 C128.24 134.19, 188.95 64.36, 244.08 -0.81 M71.45 203.68 C128.83 135.37, 188.3 69.22, 247.39 1.74 M70.49 204.68 C108.96 162.46, 147.65 119.1, 249.57 0.06 M75.48 204.05 C129.14 143.84, 182.7 82.73, 254.76 0.05 M75.86 205.94 C143.01 127.23, 209.74 51.41, 253.88 0.66 M81.96 203.49 C135.55 146.36, 184.86 86.93, 258.41 -0.34 M82.35 205.42 C127.3 154.68, 171.93 101.71, 259.74 -0.25 M87.94 205.7 C137.33 144.64, 188.41 88.66, 263.89 -1.43 M86.43 205 C131.17 154.89, 175.49 103.7, 264.87 0.67 M92.73 205.54 C145 145.52, 198.59 84.08, 270.61 1.25 M92.08 204.88 C149.06 138.82, 208 71.39, 270.84 0.2 M95.74 204.38 C163.03 125.96, 229.99 51.3, 277.09 0.21 M97.73 204.99 C140.42 156.01, 183.43 106.48, 275.75 -0.27 M101.72 204.08 C171.84 126.81, 236.93 48.52, 281.31 1.49 M103.06 205.16 C155.16 143.12, 208.54 80.32, 279.32 1.11 M109.34 203.66 C142.32 165.14, 179.46 122.15, 279.51 6.76 M108.46 204.89 C144.15 162.74, 180.57 120.42, 280.19 7.5 M113.11 205.89 C176.41 131.54, 239.22 60.17, 279.22 14.63 M113.98 205.24 C152.32 157.94, 193.58 111.9, 280.98 13.62 M117.18 204.07 C155.63 161.6, 191.23 118.07, 281.17 18.8 M118.84 205.27 C157.62 161.46, 196.17 117.63, 279.46 19.96 M124.95 205.1 C175.31 145.28, 222.87 89.55, 281.06 27.39 M123.43 204.01 C156.8 167.2, 191.02 128.24, 278.84 26.1 M130.07 206.27 C169.97 161.45, 205.87 116.09, 280.66 32.45 M129.1 205.04 C187.13 138.54, 244.6 71.7, 279.34 31.47 M134.34 206.2 C171.48 166.19, 204.3 126.67, 279.41 38.68 M134.34 206.14 C178.35 156.36, 221.51 107.33, 279.36 37.54 M139.19 203.95 C186.35 153.32, 232.05 100.16, 278.98 44.88 M139.5 204.76 C184.09 154.36, 226.91 104.24, 280.16 44.3 M143.66 204.8 C194.94 148.22, 241.59 92.74, 281.57 49.76 M144.93 205.64 C190.84 150.97, 237.45 95.97, 280.58 49.29 M148.87 204.44 C184.5 167.72, 219.41 127.55, 280.3 57.41 M150.33 205.05 C189.19 159.42, 228.67 114.83, 279.86 56.35 M157.26 205.76 C195.05 157.11, 235.42 110.1, 281.97 61.12 M154.69 205.57 C186.6 171.84, 217.65 136.09, 279.08 62.01 M160.92 205.01 C196.71 161.57, 235.61 118.66, 279.91 68.73 M162.01 204.7 C187.79 174.55, 214.72 143.54, 279.93 68.44 M164.97 206.03 C207.44 158.34, 249.6 111.6, 281.33 73.56 M165.89 204.65 C195.54 171.34, 223.93 139.35, 280.88 74.58 M172.63 206.15 C204.65 169.21, 232.6 132.67, 278.35 80.44 M170.82 204.37 C207.3 163.41, 243.52 122.21, 280.03 80.15 M176.01 206.19 C206.32 171.23, 234.15 135.57, 280.56 88.45 M176.88 205.58 C201.12 177.94, 226.42 150.03, 279.71 86.35 M181.36 204.47 C205.77 178.57, 228.97 155.65, 281.02 93.15 M183.07 204.74 C214.43 170.21, 243.26 135.37, 280.49 92.15 M187.78 206.84 C220.53 165.49, 254.92 130.95, 278.35 96.89 M187.97 205.06 C212.58 176.89, 237.69 146.9, 279.2 98.51 M192.5 204.62 C226 167.5, 255.91 132.98, 281.28 103.48 M193.07 204.49 C212.91 181.39, 231.93 159.63, 279.59 105.14 M197.64 204.63 C229.79 170.21, 257.42 135.75, 279.42 112.27 M197.46 205.77 C215.54 184.57, 232.91 162.69, 279.01 110.5 M203.42 203.2 C229.4 174.47, 254.74 147.07, 279.85 116.83 M203.13 204.33 C229.58 174.84, 252.92 146.95, 279.02 116.55 M206.96 204.16 C236.51 173.74, 263.48 138.41, 281.14 123.22 M207.67 204.4 C233.69 175.99, 259.59 145.28, 279.44 122.99 M215.49 204.84 C237.75 177.26, 260.38 151.4, 279.42 128.29 M213.57 204.93 C234.61 180.67, 254.53 157.49, 280.38 129.56 M221.13 206.08 C234.84 188.1, 249.15 170.57, 280.9 134.36 M218.91 205.64 C239.19 180.73, 261.85 156.26, 280.81 134.7 M226.09 206.18 C240.57 185.34, 254.97 168.54, 280.7 143.26 M224.69 204.98 C237.6 191.47, 250.11 174.94, 279.33 141.62 M229.51 206.99 C247.25 186.69, 263.97 166.49, 279.4 147.06 M229.5 204.17 C243.62 189.79, 255.13 175.53, 278.77 147.04 M236.6 203.83 C249.96 187.31, 264.34 171.27, 281.07 154.35 M234.82 205.17 C250.52 186.39, 267.55 168.44, 280.19 153.42 M241.48 203.53 C253.94 188.72, 265.75 175.1, 279.34 160.45 M239.75 204.69 C254.35 188.03, 270.25 170.5, 278.95 159.21 M243.73 207.17 C256.74 191.32, 265.95 178.54, 281.92 166.19 M245.61 204.95 C258.11 190.08, 269.96 176.9, 279.27 165.63 M250.42 204.32 C257.08 196.84, 264.96 190.16, 281.43 171.91 M251.96 205.88 C261.64 194.31, 271.62 182.26, 279.01 172.64 M254.17 207.32 C261.07 199.2, 269.51 190.36, 279.94 180.17 M256.67 205.48 C263.01 196.6, 270.79 188.86, 280.23 177.71 M261.7 205.99 C268.32 200.53, 272.06 193.29, 279.05 182.05 M262.46 204.43 C265.38 199.42, 270.8 195.1, 279.26 184.03 M268.64 205.67 C269.95 201.91, 275.57 195.94, 277.85 191.39 M267.68 206.21 C269.73 201.14, 273.91 197.66, 280.69 190.83 M272.56 205.08 C274.89 202.72, 276.71 198.94, 281.03 195.66 M271.87 205 C274.57 201.42, 277.15 199.4, 280.09 195.99" stroke="#eeeeee" stroke-width="0.5" fill="none"></path><path d="M-1.36 1.11 C101.22 0.14, 204.04 -0.34, 279.31 1.11 M-0.39 0.75 C106.09 -0.77, 210.35 -0.73, 279.37 0.62 M280.19 -1.36 C279.71 68.99, 280.46 135.64, 279.64 202.61 M279.32 0.52 C278.61 44.59, 279.87 89.09, 278.58 203.98 M277.47 201.84 C195.48 203.68, 111.51 204.71, 1.46 202.5 M279.21 203.23 C217.28 204.4, 154.43 203.74, -0.69 202.93 M-0.11 204.66 C-0.25 123.68, 1.07 43.84, -1.6 -1.38 M-0.17 203.37 C0.27 149.32, -0.05 94.84, -0.75 0.02" stroke="#000000" stroke-width="1" fill="none"></path></g><g transform="translate(31.5963382051047 659.3333435058594) rotate(0 42 12.5)"><text x="0" y="18" font-family="Virgil, Segoe UI Emoji" font-size="20px" fill="#000000" text-anchor="start" style="white-space: pre;" direction="ltr">Message</text></g><g transform="translate(30.26302521682345 693.3333435058594) rotate(0 95.5 76)"><text x="0" y="18.333333333333332" font-family="Virgil, Segoe UI Emoji" font-size="20px" fill="#000000" text-anchor="start" style="white-space: pre;" direction="ltr">ID (auto)</text><text x="0" y="43.666666666666664" font-family="Virgil, Segoe UI Emoji" font-size="20px" fill="#000000" text-anchor="start" style="white-space: pre;" direction="ltr">Content</text><text x="0" y="69" font-family="Virgil, Segoe UI Emoji" font-size="20px" fill="#000000" text-anchor="start" style="white-space: pre;" direction="ltr">Author</text><text x="0" y="94.33333333333333" font-family="Virgil, Segoe UI Emoji" font-size="20px" fill="#000000" text-anchor="start" style="white-space: pre;" direction="ltr">Timestamp</text><text x="0" y="119.66666666666666" font-family="Virgil, Segoe UI Emoji" font-size="20px" fill="#000000" text-anchor="start" style="white-space: pre;" direction="ltr">Offset (from 0:00)</text><text x="0" y="145" font-family="Virgil, Segoe UI Emoji" font-size="20px" fill="#000000" text-anchor="start" style="white-space: pre;" direction="ltr">Video ID</text></g><g stroke-linecap="round"><g transform="translate(11.5963382051047 686.9999694824219) rotate(0 140.36881776460447 0.5152628898620151)"><path d="M-0.09 -1.19 C46.78 -0.81, 233.5 1.86, 280.21 2.22 M-1.6 0.8 C45.71 0.8, 234.99 0.05, 282.33 0.21" stroke="#000000" stroke-width="1" fill="none"></path></g></g><g transform="translate(142.26290314651095 137.99996948242188) rotate(0 281.5 50.5)"><text x="0" y="18.25" font-family="Virgil, Segoe UI Emoji" font-size="20px" fill="#000000" text-anchor="start" style="white-space: pre;" direction="ltr">Questions</text><text x="0" y="43.5" font-family="Virgil, Segoe UI Emoji" font-size="20px" fill="#000000" text-anchor="start" style="white-space: pre;" direction="ltr">---------------</text><text x="0" y="68.75" font-family="Virgil, Segoe UI Emoji" font-size="20px" fill="#000000" text-anchor="start" style="white-space: pre;" direction="ltr">How to embed emote thumbnails in messages?</text><text x="0" y="94" font-family="Virgil, Segoe UI Emoji" font-size="20px" fill="#000000" text-anchor="start" style="white-space: pre;" direction="ltr">Should I download emote thumbnails locally? If so, when?</text></g><g stroke-linecap="round"><g transform="translate(930.2632693574485 86.33334350585938) rotate(0 147.36856737136839 1.1631642974075476)"><path d="M-0.88 0.42 C48.24 0.75, 246.45 1.08, 295.61 1.24 M0.87 -0.41 C49.83 0.18, 246.47 2.21, 295.16 2.73" stroke="#000000" stroke-width="1" fill="none"></path></g><g transform="translate(930.2632693574485 86.33334350585938) rotate(0 147.36856737136839 1.1631642974075476)"><path d="M267.56 14.27 C277.42 8.18, 288.29 4.18, 296.92 2.94 M266.47 11.96 C278.43 8.43, 289.43 4.47, 295.38 3.34" stroke="#000000" stroke-width="1" fill="none"></path></g><g transform="translate(930.2632693574485 86.33334350585938) rotate(0 147.36856737136839 1.1631642974075476)"><path d="M267.78 -6.25 C277.43 -4.62, 288.22 -0.91, 296.92 2.94 M266.69 -8.56 C278.38 -4.15, 289.3 -0.18, 295.38 3.34" stroke="#000000" stroke-width="1" fill="none"></path></g></g><g transform="translate(940.929895334011 60) rotate(0 43.5 12.5)"><text x="0" y="18" font-family="Virgil, Segoe UI Emoji" font-size="20px" fill="#000000" text-anchor="start" style="white-space: pre;" direction="ltr">Video ID</text></g><g stroke-linecap="round"><g transform="translate(1380.929895334011 92.99996948242188) rotate(0 128.7850934244367 0.40753435922090375)"><path d="M0.41 1.19 C43.67 1.46, 215.3 1.5, 258.4 1.23 M-0.83 0.77 C42.34 0.71, 214.1 -0.52, 257.31 -0.6" stroke="#000000" stroke-width="1" fill="none"></path></g><g transform="translate(1380.929895334011 92.99996948242188) rotate(0 128.7850934244367 0.40753435922090375)"><path d="M231.16 9.35 C235.92 8.13, 238.88 3.52, 256.25 -1.63 M229.55 10.58 C239.01 7.14, 246.3 3.04, 257.76 -1.15" stroke="#000000" stroke-width="1" fill="none"></path></g><g transform="translate(1380.929895334011 92.99996948242188) rotate(0 128.7850934244367 0.40753435922090375)"><path d="M231.06 -11.17 C235.77 -8.17, 238.76 -8.58, 256.25 -1.63 M229.45 -9.94 C238.8 -6.94, 246.12 -4.61, 257.76 -1.15" stroke="#000000" stroke-width="1" fill="none"></path></g></g><g transform="translate(1413.596643380886 67.33331298828125) rotate(0 76.5 12.5)"><text x="0" y="18" font-family="Virgil, Segoe UI Emoji" font-size="20px" fill="#000000" text-anchor="start" style="white-space: pre;" direction="ltr">Chat Messages</text></g><g stroke-linecap="round" transform="translate(1231.596643380886 23) rotate(0 73 70.33332824707031)"><path d="M0 0 C0 0, 0 0, 0 0 M0 0 C0 0, 0 0, 0 0 M-0.23 5.6 C1.72 4.96, 3.99 1.58, 5.43 0.01 M-0.47 6.06 C1.07 5.41, 1.75 3.89, 4.89 0.29 M1.19 10.7 C4.76 8.12, 8.14 3.44, 10.45 1.18 M0.27 12.26 C3.64 8.85, 6.54 4.41, 11.35 -0.37 M-0.65 17.98 C3.79 11.61, 10.15 7.04, 14.25 0.6 M0.65 19.32 C5.5 10.62, 11.85 5.31, 15.04 0.3 M2.21 23.08 C6.09 15.78, 14.02 11.11, 21.86 1.15 M-0.02 24.29 C6.1 17.61, 10.03 10.94, 21.26 -0.1 M-0.34 29 C8.27 22.24, 13.78 15.83, 26.36 -1.03 M-0.36 29.68 C10.48 18.07, 19.58 6.48, 25.79 0.57 M-1.23 37.3 C11.5 24.96, 22.25 10.74, 30.97 -0.62 M-0.78 37.45 C7.08 29.01, 13.76 22.21, 31.12 -0.73 M2.13 42.08 C8.75 34.29, 13.48 23.13, 35.81 -0.78 M0.52 43.3 C12.9 29.94, 22.89 15.84, 37.33 -0.29 M1.83 48.15 C8.42 40.52, 16.56 28.46, 43.12 0.81 M-0.36 48.96 C11.49 35.05, 22.28 21.76, 43.41 0.34 M0.12 53.85 C18.33 35.62, 37.57 11.89, 47.99 1.97 M-0.42 54.87 C10.95 43.2, 22.71 29.53, 47.96 0.39 M0.11 61 C12.18 45.33, 24.32 32.68, 51.66 -1.96 M0.91 60.26 C15.07 43.43, 31.81 23.32, 52.46 -0.2 M-1.64 65.68 C16.48 51.36, 28.42 36.08, 56.25 -0.15 M0.48 67.84 C12.72 53.29, 22.89 40.66, 58 -0.7 M-1.03 72.47 C21.59 48.66, 40.09 25.58, 61.98 -0.28 M-0.66 72.05 C24.59 44.24, 48.65 16.92, 64.57 0.34 M-0.46 80.71 C16.1 63.65, 29.68 44.32, 69.98 1.48 M0.85 79.38 C22.06 54.99, 41.58 32.76, 69.76 1.13 M-0.19 83.2 C20.86 61.33, 40.75 38.98, 75.46 -1.54 M1.24 85.01 C27.98 53.98, 54.33 22.75, 74.05 0.64 M0.38 92.3 C23.05 62.76, 49.2 35.96, 78.55 -0.52 M0.35 90.93 C30.3 55.23, 61.83 19.97, 79.55 0.58 M-0.67 98.56 C29.05 65.17, 57.02 32.72, 85.47 -1.12 M0.26 98.59 C30.02 63.17, 58.86 31.58, 85.22 -0.6 M-1.76 105.07 C34.72 63.3, 65.44 26.2, 91.34 -1.51 M-0.71 103.19 C32.89 66.94, 63.14 31, 89.68 0.32 M0.22 109.67 C29.24 75.94, 58.65 41.89, 97.38 1.63 M0.04 109.95 C33.3 71.03, 66.3 32.36, 96.4 -0.71 M-1.49 115.67 C24.11 88.73, 45.36 63.24, 101.72 -0.87 M-0.02 114.83 C24.75 87.69, 49.06 60.38, 100.48 1.04 M-0.79 121.9 C28.8 91.25, 54.34 62.57, 104.58 -0.69 M0.22 122.55 C29.04 86.86, 59.68 50.39, 105.89 -0.99 M-2.1 129.45 C34.99 86.13, 70.38 46.24, 111.07 2.01 M0.08 129.31 C37.13 86.01, 72.72 42.57, 112.24 -0.57 M1.66 135.89 C45.92 79.78, 91.85 30.02, 115.77 1.31 M1.12 133.07 C22.3 106.63, 45.35 79.59, 115.35 0 M-0.9 141.55 C31.3 106.21, 62.41 69.66, 120.75 -0.22 M-0.79 139.8 C35.24 99.86, 71.01 58.99, 121.28 0.18 M3.58 141.23 C46.32 92.71, 87.69 42.82, 125.64 -1.25 M3.68 143.18 C49.14 88.79, 96.3 34.52, 126.4 -0.56 M6.7 144.28 C44.64 98.72, 81.1 59.61, 132.16 1.04 M6.9 142.68 C58.86 85.79, 108.28 29.34, 131.92 -0.02 M11.58 144.52 C58.34 90.4, 106.16 37.78, 138.92 1 M13.46 143.53 C47.24 103.75, 82.56 65.09, 136.7 0.77 M16.83 144.3 C49.99 108.67, 82.44 70.91, 142.66 -1.56 M18.21 142.69 C54.42 99.3, 93.72 56.26, 142.47 -0.49 M23.18 143.44 C56.53 102.84, 91.74 65.68, 148.32 1.44 M24.89 143.86 C69.14 91.54, 112.18 40.88, 147.91 1.43 M28.24 145.27 C72.21 93.63, 114.41 45.96, 147.06 8.13 M28.84 143.52 C63.3 102.08, 97.08 64.21, 146.67 7.01 M35.75 142.61 C69.99 102.95, 103.4 65.66, 146.04 11.28 M34.29 142.86 C70.47 102.43, 106.94 62.61, 147.16 12.68 M38.31 143.79 C68.59 111.67, 95.05 76.57, 149.37 19.72 M39.1 143.86 C62.14 114.94, 86.58 88.58, 147.47 20.15 M46.65 142.65 C73.32 108.98, 102.17 76.21, 146.63 24.55 M45.98 143.22 C84.09 97.36, 124.03 51.72, 147.94 26.63 M52.4 144.51 C87.92 100.2, 122.83 59.01, 146.9 33.32 M51.29 142.41 C86.36 102.18, 120.66 62.29, 147.12 31.08 M57.28 144.2 C77.77 119.84, 96.14 94.66, 148.78 36.38 M56.26 143.63 C81.14 115.17, 104.67 86.07, 147.87 38.47 M59.9 144.04 C89.97 110.12, 118.77 76.74, 149.01 41.55 M61.73 143.85 C94.16 104.55, 128.11 64.83, 147.92 44.49 M65 143.87 C85.42 124.62, 98.29 106.75, 149.21 48.16 M67.45 142.77 C83.1 123.89, 100.19 103.66, 146.62 49.63 M70.18 143.02 C101.52 111.81, 127.84 78.63, 148.44 57.78 M70.74 142.87 C98.5 110.34, 126.55 78.49, 147.54 55.83 M79.18 142.3 C94.56 125.11, 108.71 108.23, 149.29 60.5 M77.85 143.33 C96.71 118.38, 118.02 96.25, 148.5 62.81 M80.61 142.05 C103.98 117.32, 126.43 95.69, 147.87 69.14 M82.63 142.15 C107.3 115.91, 130.44 88.16, 147.6 68.28 M88.55 144.85 C104.12 124.05, 123.01 101.01, 146.4 74.02 M87.13 142.76 C109.26 118.5, 133.62 91.33, 147.81 74.69 M92.57 141.78 C103.21 128.97, 116.74 117.27, 148.01 80.99 M93.7 142.38 C107.39 127.83, 120.56 111.63, 147.75 81.27 M99.79 142.66 C114.39 125.57, 126.23 110.21, 145.27 86.12 M98.92 144.22 C114.71 124.08, 131.56 105.19, 146.22 86.72 M103.44 142.82 C115.1 128.01, 126.7 114.76, 146.25 93.98 M104.27 142.25 C116.05 127.5, 129.51 112.71, 148.3 91.49 M109.62 145.09 C117.34 135.32, 127.07 124.02, 148.56 99.9 M108.86 143.17 C117.03 132.21, 127.23 122.41, 147.35 98.06 M114.58 141.8 C125.32 131.91, 134.9 118.36, 147.95 104.71 M114.66 142.45 C127.07 128.49, 139.72 113.71, 147.58 103.64 M119.42 144.77 C128.33 134.36, 137.2 121.93, 149.01 112.75 M119.27 144.29 C129.67 133.15, 139.24 120.72, 146.85 110.18 M123.38 143.34 C130.78 138.73, 134.13 130.89, 145.83 118.58 M125.17 143.66 C131.66 133.51, 140.33 126.04, 147.23 117.14 M130.56 142.34 C132.18 137.76, 137.6 132.65, 147.99 121.28 M130.46 144.27 C135.84 136.09, 142.28 129.7, 147.04 123.74 M135.23 143.96 C139.71 136.55, 143.49 131.94, 146.66 130.56 M136.06 142.61 C139.64 139.29, 141.9 135.12, 146.92 129.21 M140.43 142.8 C143.12 139.73, 144.73 138.27, 147.23 134.52 M140.61 143.57 C141.96 141.18, 144.56 138.71, 147.98 135.24 M-0.22 140.48 C-0.22 140.48, -0.22 140.48, -0.22 140.48 M-0.22 140.48 C-0.22 140.48, -0.22 140.48, -0.22 140.48 M5.9 140.07 C3.71 138.08, 2.33 136.21, -0.16 135.85 M5.93 140.86 C4.95 139.43, 3.43 138.37, 0.52 135.87 M12.41 139.35 C9.96 137.12, 6.97 136.31, 0.34 130.65 M11.72 139.87 C8.57 136.87, 4.61 133.27, -0.29 130.25 M18.31 141.92 C14.55 137.42, 10.99 132.65, 2.04 125.07 M18.38 139.62 C13.95 137, 9.28 131.36, 1.06 125.82 M23.89 141.71 C13.78 131.56, 4 123.89, -0.02 121.05 M24 140.45 C15.22 133.76, 7.22 125.68, -0.91 119.74 M29.98 141.14 C20.58 133.05, 15.59 126.32, 0.72 115.94 M31.23 139.81 C21.66 133.21, 14.34 126.59, 0.96 113.4 M35 141.35 C24.02 129.69, 12.89 118.45, -0.82 108.75 M37.24 140.95 C28.29 134.13, 20.61 126.83, -0.92 109.18 M41.86 141.36 C33.84 131.33, 23.98 121.89, 0.8 101.63 M42.44 140.29 C30.13 128.98, 17.22 118.13, -0.88 103.86 M48.01 139.31 C35.97 127.42, 20.97 116.89, -0.51 98.58 M48.49 140.59 C28.96 123.7, 10.51 107.23, -0.02 97.35 M56.1 139.86 C32.35 123.4, 10.9 104.68, -0.33 94.76 M55.05 140.42 C43.98 129.99, 32.69 120.97, -0.16 93.91 M60.3 140.2 C40.65 124.83, 24.77 109.16, -0.99 87.82 M60.04 140.06 C39.71 121.63, 18.99 102.81, 0.85 87.6 M68.54 139.97 C42.63 119.28, 17.18 96.62, -1.32 83.95 M67.88 141.55 C49.09 125.36, 30.92 108.38, -0.57 82.22 M74 141.32 C41.88 114.26, 15.21 91.33, 1.62 75.78 M72.98 140.7 C45.98 118.94, 21.11 95.82, 0.5 77.3 M77.33 138.94 C46.42 112.63, 16.62 85, -0.77 69.83 M79.99 141.05 C49.6 113.25, 18.42 88.25, 0.21 71.48 M84.97 141.97 C66.48 124.49, 48.18 109.44, 1.45 67.74 M86.1 139.88 C61.13 119.92, 38.58 99.57, -0.01 65.79 M91.83 141.42 C63.52 117.4, 34.62 91.6, -1.32 61.02 M91.7 139.59 C55.66 109.85, 22.26 80.3, 0.5 60.38 M99.35 139.44 C59.4 108.48, 25.24 79.8, -0.13 56.32 M98.47 140.96 C61.59 109.78, 24.52 76.98, -0.36 55.77 M102.18 140.68 C67.81 111.59, 33.18 81.14, -1.59 50.16 M104.07 140.53 C66.5 108.42, 31.96 78.56, 0.59 49.61 M110.51 142.34 C74.45 112.34, 41.9 79.69, -1.75 46.16 M110.4 140.61 C72.92 107.83, 38.13 77.13, -0.24 45.92 M116.25 140.04 C80.4 112.45, 49.36 80.72, -0.2 37.85 M115.9 141.22 C76.4 105.39, 35.6 70.05, 0.82 39.85 M119.82 139.31 C88.68 113.62, 59.11 85.21, 1.98 33.88 M122.21 139.52 C98.06 118.73, 73.37 96.09, 0.67 34.93 M128.15 140.78 C98.63 115.95, 70.28 88.38, 0.21 28.74 M128.26 141.03 C95.45 112.56, 62.5 83.84, -0.52 29.79 M133.41 139.62 C98.56 111.64, 68.64 83.59, 0.42 24.09 M134.96 141.05 C100.52 110.14, 64.54 80.66, 0.67 23.48 M139.27 139.52 C85.47 93.53, 31.36 48.15, 1.03 19.44 M139.47 140.63 C93.37 98.76, 44.12 58.97, -1.11 18.13 M146.4 141.94 C101.11 100.54, 54.06 60.22, -1.04 13.44 M146.71 139.9 C90.97 91.65, 35.18 41.61, 0.07 14.27 M144.95 135.63 C92.88 89.33, 39.48 44.43, -0.37 6.59 M145.8 135.47 C108.12 102.65, 70.24 69.91, -0.63 7.54 M147.11 131.01 C104.96 95.58, 66.57 61.48, -1.04 2.53 M146.7 130.89 C114.42 101.04, 80.44 72.04, -0.8 1.97 M146.55 125.75 C113.28 96.12, 81.47 68.6, 2.89 0.1 M145.57 124.22 C103.63 85.58, 61.35 49.48, 0.73 -1.97 M146.71 119.99 C96.47 75.49, 43.16 29.09, 9.35 -1.43 M147.07 119.24 C107.25 88.61, 71.76 56.35, 7.9 -0.15 M147.5 115.75 C94.42 69.83, 47.68 27.22, 13.24 -3.5 M145.11 114.84 C104.43 77.78, 64.03 41.34, 12.34 -1.85 M147.34 110.16 C117.42 81.78, 87.6 55.99, 20.49 -0.46 M146.87 108.3 C99.64 68.49, 53.51 26.19, 19.48 -2.04 M145.16 102.25 C114.84 76.92, 84.38 52.57, 25.5 -0.8 M146.75 104 C100.74 62.93, 54.69 24.91, 25.96 -2.58 M146.38 98.14 C113.3 69.09, 78.17 37.37, 33.22 -1.86 M146.42 98.74 C121.81 77.22, 97.21 58.26, 31.71 -0.95 M144.91 93.87 C114.54 64.55, 83.16 34.8, 37.8 -2.49 M146.79 92.4 C108.76 58.98, 69.82 26.27, 38.64 -0.83 M145.2 88.57 C107.34 52.4, 66.55 17.46, 44.91 -1.01 M146.04 87.26 C120.45 65.59, 95.73 43.12, 42.92 -2.18 M144.14 83.25 C114.25 53.28, 78.56 25.4, 49.99 -1.28 M145.56 82.72 C114.53 56.42, 85.24 29.06, 49.2 -1.23 M145.17 78.05 C116.46 51.41, 85.98 22.15, 56.95 -1.29 M146.03 76.55 C114.53 49.76, 81.24 21.6, 55.4 -1.06 M144.2 71 C128.57 56.22, 111.26 41.73, 60.22 0.12 M145.36 71.64 C117.37 47.42, 90.29 22.24, 62.7 -0.42 M147.67 67.23 C116 40.92, 88.83 14.26, 67.46 -1.4 M146.71 67.28 C130.65 52.25, 115.04 39.15, 68.24 -0.24 M146.48 61.76 C120.84 41.35, 99.36 19.4, 73.84 -1.67 M146.5 59.86 C125.37 42.98, 106.45 26.72, 73.44 -1.72 M146.07 56.72 C123.28 37.85, 102.32 14.8, 80.3 -2.04 M146.39 56.16 C128.87 42.39, 112.32 25.61, 80.23 -0.34 M144.35 52.14 C127.22 32.16, 106.27 13.07, 84.25 -2.01 M145.3 50.07 C133.28 39.2, 119.58 26.6, 85.75 -2.44 M145.75 47.15 C132.5 35.25, 120.39 21.14, 93.62 -1.94 M145.39 45.86 C124.67 27.41, 103.41 9.08, 92.43 -2.02 M147.19 38.78 C132.34 28.76, 119.29 18.21, 97.57 0.36 M146.07 38.95 C135.77 31.67, 126.98 22.52, 98.69 -1.25 M148.09 35.15 C129.51 23.05, 117.62 9.37, 104.77 -0.45 M146.01 35.08 C136.27 24.07, 125.03 14.71, 105.17 -0.59 M144.37 30.29 C132.96 18.65, 123.67 8.33, 109.66 -3.23 M145.12 29.18 C134.62 17.77, 121.95 7.49, 111.06 -0.76 M146.46 25.33 C138.34 18.22, 131.56 11.72, 115.14 -0.96 M146.57 24.51 C135.41 14.31, 123.9 4.39, 116.76 -1.36 M145.27 19.3 C141.26 12.56, 137.65 10.36, 122.65 0.49 M144.77 17.46 C140.53 13.17, 133.55 7.89, 123.94 -1.62 M146.23 14.33 C140.34 11.55, 137.05 5.84, 130.86 -2.19 M145.38 12.82 C139.96 9.02, 135.64 2.98, 130.26 -0.99 M147.63 7.4 C142.99 4.17, 138.68 2.57, 134.24 -0.27 M146.18 8.92 C144.36 5.87, 140.59 2.9, 135.51 -1.26 M145.7 2.69 C144.27 1.4, 143.34 -0.04, 141.03 -1.14 M146.29 2.67 C144.66 1.85, 143.58 0.46, 141.83 -1.53" stroke="#eeeeee" stroke-width="0.5" fill="none"></path><path d="M0.53 -1.45 C55.01 1.67, 112.97 1.22, 147.47 -0.45 M-0.26 0.1 C43.19 0.56, 87.54 1.25, 145.23 -0.38 M144.11 0.75 C146.28 35.39, 145.6 72.5, 146.48 138.74 M146.32 0.65 C145.02 28.44, 145.39 56.03, 146.62 139.98 M145.99 141.39 C110.8 141.59, 73.17 142, 1.58 139.98 M146.5 141.57 C99.74 139.99, 51.09 140.07, -0.17 139.76 M0.08 141.95 C-0.45 89.89, 1.12 40.72, -1.81 -1.4 M-0.57 139.97 C1.63 104.54, 1.68 68.46, 0.27 -0.83" stroke="#000000" stroke-width="1" fill="none"></path></g><g transform="translate(1271.5965823457298 77.33331298828125) rotate(0 32 12.5)"><text x="0" y="18" font-family="Virgil, Segoe UI Emoji" font-size="20px" fill="#000000" text-anchor="start" style="white-space: pre;" direction="ltr">ripYTC</text></g><g stroke-linecap="round"><g transform="translate(1647.7801475449694 47.875253450576565) rotate(0 38.576959598819826 41.82987811863188)" fill-rule="evenodd"><path d="M0.88 0.99 L-1.87 84.65 L0 87.51 L16.63 92.28 L40.22 91.96 L64.43 90.08 L75.29 83.53 L78.89 0.27 L65.48 -3.83 L35.53 -9.11 L8.15 -3.45 L2.11 -1.78 L0.44 0.86" stroke="none" stroke-width="0" fill="#ced4da" fill-rule="evenodd"></path><path d="M0.6 0.19 C0.6 12.59, -0.72 61.54, -0.78 75.48 C-0.83 89.42, -0.69 81.77, 0.29 83.83 C1.27 85.89, 2.05 86.83, 5.11 87.85 C8.16 88.87, 12.78 89.4, 18.62 89.95 C24.46 90.51, 32.6 91, 40.13 91.2 C47.66 91.4, 57.88 91.78, 63.8 91.15 C69.72 90.51, 73.54 88.91, 75.66 87.39 C77.77 85.87, 76.05 83.77, 76.48 82.02 C76.91 80.28, 78.33 89.47, 78.22 76.93 C78.1 64.38, 76.23 19.78, 75.8 6.75 C75.37 -6.29, 76.54 0.61, 75.63 -1.29 C74.71 -3.2, 72.76 -3.74, 70.31 -4.68 C67.86 -5.62, 66.46 -6.56, 60.93 -6.94 C55.4 -7.32, 44.43 -6.89, 37.15 -6.96 C29.86 -7.03, 22.84 -7.8, 17.21 -7.37 C11.59 -6.93, 6.38 -5.65, 3.4 -4.33 C0.41 -3.01, -0.17 -0.33, -0.71 0.55 C-1.25 1.42, 0.17 0.9, 0.16 0.94 M-0.54 -0.76 C-0.12 11.78, 1.36 59.18, 1.4 73.51 C1.43 87.83, -0.48 82.58, -0.33 85.19 C-0.18 87.79, -0.7 88.35, 2.29 89.15 C5.28 89.96, 11.14 89.87, 17.6 90.01 C24.06 90.15, 33.21 89.91, 41.06 89.97 C48.91 90.03, 59.06 90.79, 64.7 90.4 C70.34 90.01, 72.63 88.75, 74.9 87.63 C77.16 86.52, 78.12 85.51, 78.29 83.71 C78.47 81.9, 76.39 89.45, 75.94 76.83 C75.48 64.2, 75.31 20.53, 75.56 7.96 C75.81 -4.61, 78.38 3.12, 77.44 1.42 C76.5 -0.27, 72.8 -0.71, 69.92 -2.21 C67.03 -3.7, 65.57 -6.76, 60.15 -7.56 C54.73 -8.36, 44.46 -7.2, 37.38 -7.01 C30.3 -6.81, 23.55 -6.85, 17.68 -6.38 C11.82 -5.91, 4.92 -5.43, 2.19 -4.17 C-0.54 -2.9, 1.87 0.25, 1.32 1.22 C0.76 2.2, -0.8 1.99, -1.15 1.69" stroke="#000000" stroke-width="1" fill="none"></path></g></g><g stroke-linecap="round"><g transform="translate(1648.3040769832444 105.00153710830637) rotate(0 38.55005119340183 3.814173648558267)"><path d="M0.19 -1.03 C0.4 -0.51, 0.53 2.28, 2.31 3.69 C4.1 5.1, 7.45 6.55, 10.87 7.41 C14.29 8.28, 17.98 8.9, 22.85 8.87 C27.73 8.84, 33.63 7.46, 40.11 7.24 C46.59 7.02, 55.78 8.16, 61.71 7.55 C67.64 6.93, 72.91 4.94, 75.67 3.56 C78.43 2.18, 78.21 -0.26, 78.28 -0.73 M-1.18 1.04 C-1.19 1.13, -0.37 0.94, 1.51 1.71 C3.4 2.48, 6.51 4.82, 10.14 5.67 C13.77 6.51, 18 6.52, 23.3 6.77 C28.61 7.02, 35.36 7.15, 41.96 7.15 C48.57 7.14, 57.72 7.54, 62.93 6.76 C68.15 5.98, 70.77 3.81, 73.25 2.48 C75.74 1.14, 77.13 -0.83, 77.83 -1.25" stroke="#000000" stroke-width="1" fill="none"></path></g></g><g stroke-linecap="round"><g transform="translate(1647.2722196607406 76.0374817730833) rotate(0 37.960568366367625 3.446813585567611)"><path d="M-1.03 0.28 C-0.74 0.83, 0.15 2.42, 2.31 3.48 C4.47 4.55, 8.43 6.01, 11.94 6.66 C15.44 7.31, 18.68 7.18, 23.33 7.37 C27.98 7.56, 33.28 7.67, 39.82 7.8 C46.36 7.94, 56.69 8.81, 62.56 8.2 C68.43 7.59, 72.66 5.77, 75.04 4.15 C77.42 2.53, 76.29 -0.88, 76.84 -1.52 M0.63 -0.62 C0.73 0.13, -0.35 4.2, 1.51 5.06 C3.36 5.91, 8.01 4.01, 11.77 4.52 C15.52 5.04, 19.07 7.56, 24.03 8.14 C28.99 8.72, 35.43 8.07, 41.52 8 C47.61 7.94, 54.83 8.53, 60.57 7.76 C66.3 6.99, 73.44 4.48, 75.95 3.39 C78.46 2.29, 75.41 1.89, 75.64 1.2" stroke="#000000" stroke-width="1" fill="none"></path></g></g><g stroke-linecap="round" transform="translate(1646.2142706786585 40.74298482489485) rotate(0 38.29876800932743 7.745637696423955)"><path d="M54.51 1.14 C61.95 1.45, 69.66 2.2, 73.23 3.62 C76.8 5.04, 78.03 8.01, 75.94 9.65 C73.85 11.29, 67.37 12.49, 60.69 13.45 C54.02 14.41, 44.17 15.48, 35.89 15.43 C27.62 15.37, 17.16 14.44, 11.04 13.12 C4.93 11.8, 0.08 9.28, -0.79 7.52 C-1.66 5.75, 0.99 3.79, 5.82 2.54 C10.65 1.3, 19.72 0.33, 28.19 0.05 C36.65 -0.24, 51.8 0.52, 56.64 0.82 C61.47 1.13, 57.73 1.63, 57.19 1.87 M30.07 -1.24 C37.34 -1.83, 47.8 0.04, 55.15 1.28 C62.51 2.52, 70.87 4.8, 74.19 6.2 C77.52 7.61, 77.61 8.46, 75.11 9.71 C72.62 10.96, 66.33 12.83, 59.22 13.72 C52.11 14.61, 40.52 15.28, 32.45 15.04 C24.38 14.81, 16.25 13.28, 10.81 12.3 C5.38 11.32, 0.39 10.91, -0.17 9.16 C-0.73 7.42, 2.44 3.53, 7.43 1.82 C12.43 0.11, 25.99 -1.1, 29.81 -1.1 C33.63 -1.1, 30.19 1.62, 30.33 1.81" stroke="none" stroke-width="0" fill="#fff"></path><path d="M40.13 -0.53 C47.65 -0.69, 56.9 0.3, 62.98 1.65 C69.06 3, 75.21 5.72, 76.6 7.57 C77.98 9.42, 75.74 11.63, 71.32 12.73 C66.9 13.83, 57.77 13.7, 50.07 14.16 C42.37 14.62, 32.86 15.9, 25.14 15.5 C17.41 15.11, 7.87 13.48, 3.7 11.79 C-0.47 10.1, -1.54 7.13, 0.1 5.35 C1.74 3.57, 5.89 2.08, 13.55 1.1 C21.21 0.12, 39.62 -0.58, 46.08 -0.51 C52.54 -0.44, 52.57 1.36, 52.31 1.53 M40.58 0.2 C48.82 0.13, 59.15 -0.2, 65.25 0.99 C71.35 2.19, 76.18 5.76, 77.2 7.37 C78.23 8.97, 75.82 9.49, 71.41 10.64 C67.01 11.79, 58.53 13.72, 50.78 14.29 C43.04 14.86, 32.46 14.66, 24.93 14.07 C17.41 13.47, 9.61 11.91, 5.65 10.72 C1.69 9.53, -0.37 8.62, 1.18 6.93 C2.72 5.23, 8.67 1.46, 14.94 0.55 C21.21 -0.36, 34.48 1.77, 38.8 1.45 C43.12 1.14, 40.55 -0.99, 40.87 -1.33" stroke="#000000" stroke-width="1" fill="none"></path></g><g stroke-linecap="round" transform="translate(1682.706257783881 65.21965250479843) rotate(0 5.61305157708091 6.091879242227833)"><path d="M4.39 0.58 C5.21 0.2, 5.96 0.57, 6.99 1.07 C8.01 1.57, 9.97 2.39, 10.55 3.57 C11.13 4.75, 10.74 7, 10.47 8.17 C10.2 9.35, 9.84 10.12, 8.96 10.63 C8.08 11.13, 6.55 11.4, 5.2 11.22 C3.84 11.04, 1.83 10.29, 0.84 9.56 C-0.15 8.84, -0.72 7.86, -0.75 6.85 C-0.78 5.83, -0.24 4.61, 0.67 3.48 C1.59 2.36, 3.79 0.8, 4.73 0.1 C5.67 -0.6, 6.17 -0.72, 6.3 -0.7 M5.2 -0.88 C6.18 -0.64, 9.09 1.43, 10.32 2.65 C11.56 3.87, 12.75 5.15, 12.61 6.46 C12.48 7.77, 10.6 9.69, 9.5 10.52 C8.39 11.34, 7.16 11.13, 5.98 11.41 C4.8 11.69, 3.46 12.79, 2.41 12.21 C1.35 11.64, -0.17 9.41, -0.32 7.94 C-0.48 6.48, 1.13 4.65, 1.46 3.4 C1.79 2.15, 1 0.99, 1.65 0.44 C2.29 -0.11, 4.27 0.19, 5.34 0.1 C6.41 0.01, 8.03 -0.28, 8.08 -0.1" stroke="none" stroke-width="0" fill="#868e96"></path><path d="M7.64 -0.1 C8.58 0.34, 9.76 2.72, 10.48 4.12 C11.19 5.53, 12.08 7.17, 11.93 8.31 C11.78 9.44, 10.91 10.13, 9.58 10.93 C8.26 11.73, 5.23 13.37, 3.98 13.11 C2.72 12.85, 2.66 10.58, 2.06 9.35 C1.46 8.12, 0.66 7.03, 0.37 5.71 C0.08 4.39, -0.26 2.37, 0.31 1.42 C0.88 0.48, 2.46 0.1, 3.79 0.03 C5.11 -0.03, 7.16 0.87, 8.25 1.03 C9.34 1.19, 10.34 0.88, 10.33 1 M3.3 1.81 C4.26 1.23, 4.65 0.89, 5.9 1.12 C7.14 1.35, 10.1 2.18, 10.78 3.21 C11.46 4.24, 10.29 5.93, 9.97 7.3 C9.65 8.68, 9.61 10.44, 8.85 11.45 C8.09 12.47, 6.57 13.41, 5.41 13.41 C4.25 13.41, 2.61 12.39, 1.89 11.47 C1.17 10.55, 1.48 9.35, 1.07 7.88 C0.65 6.41, -1.18 3.66, -0.6 2.63 C-0.02 1.6, 4.17 1.84, 4.55 1.7 C4.93 1.56, 2.09 2, 1.67 1.76" stroke="#000000" stroke-width="1" fill="none"></path></g><g stroke-linecap="round" transform="translate(1683.0573995678146 91.43626679186355) rotate(0 5.61305157708091 6.091879242227833)"><path d="M7.9 -0.42 C9.05 -0.14, 10.51 1.87, 11.1 3.04 C11.68 4.21, 11.58 5.31, 11.38 6.6 C11.18 7.88, 10.92 9.85, 9.9 10.76 C8.87 11.67, 6.71 12.22, 5.23 12.05 C3.75 11.89, 2.03 10.73, 1.01 9.77 C-0.02 8.81, -0.88 7.46, -0.91 6.29 C-0.95 5.12, -0.11 3.76, 0.79 2.76 C1.68 1.76, 3.23 0.54, 4.45 0.3 C5.67 0.05, 7.58 1.08, 8.11 1.31 C8.65 1.54, 7.79 1.64, 7.67 1.68 M7.05 0.98 C8.2 1.91, 10.45 3.89, 11.17 4.95 C11.88 6, 11.67 6.38, 11.36 7.32 C11.05 8.25, 10.44 9.79, 9.28 10.53 C8.12 11.28, 5.53 11.92, 4.39 11.78 C3.26 11.64, 3.24 10.4, 2.48 9.71 C1.71 9.03, 0.15 9.08, -0.18 7.69 C-0.52 6.3, -0.21 2.84, 0.46 1.37 C1.13 -0.09, 2.58 -1.2, 3.84 -1.08 C5.1 -0.96, 7.39 1.92, 8.03 2.07 C8.66 2.22, 7.62 0.13, 7.65 -0.19" stroke="none" stroke-width="0" fill="#868e96"></path><path d="M5.74 -0.23 C6.82 0.14, 9.28 1.87, 10.26 3.06 C11.25 4.25, 11.75 5.94, 11.65 6.93 C11.55 7.92, 10.35 8.05, 9.68 9 C9.02 9.95, 8.92 12.17, 7.64 12.63 C6.36 13.1, 3.31 12.64, 1.99 11.78 C0.66 10.91, 0.12 8.81, -0.32 7.43 C-0.77 6.05, -1.17 4.72, -0.68 3.52 C-0.19 2.31, 1.22 0.55, 2.62 0.18 C4.01 -0.18, 6.77 1.18, 7.68 1.3 C8.58 1.42, 8.05 1.11, 8.05 0.92 M5.24 -0.79 C6.36 -1.13, 7.83 0.69, 8.85 1.19 C9.88 1.68, 10.9 1.26, 11.41 2.18 C11.91 3.11, 12.12 5.4, 11.9 6.74 C11.68 8.07, 10.98 9.38, 10.08 10.18 C9.17 10.98, 7.83 11.35, 6.48 11.54 C5.13 11.73, 3.07 12.28, 2 11.3 C0.94 10.32, 0.43 6.85, 0.09 5.66 C-0.26 4.46, -0.92 5.28, -0.08 4.13 C0.77 2.98, 4.27 -0.4, 5.13 -1.25 C6 -2.11, 5.41 -1.13, 5.12 -1" stroke="#000000" stroke-width="1" fill="none"></path></g><g stroke-linecap="round" transform="translate(1683.706257783881 120.20499336316993) rotate(357.5021844865888 5.61305157708091 6.091879242227833)"><path d="M5.42 0.63 C6.49 0.68, 8.76 1.17, 9.62 2.14 C10.48 3.11, 10.52 5.22, 10.6 6.43 C10.68 7.63, 10.73 8.61, 10.1 9.38 C9.46 10.15, 8.13 10.86, 6.81 11.06 C5.49 11.25, 3.36 10.98, 2.17 10.56 C0.98 10.14, 0.04 9.45, -0.32 8.54 C-0.69 7.62, -0.46 6.32, 0 5.08 C0.46 3.83, 1.15 2, 2.46 1.05 C3.76 0.11, 6.79 -0.46, 7.81 -0.59 C8.83 -0.73, 8.68 -0.14, 8.6 0.25 M5.82 0.45 C7.43 0.55, 9.66 0.83, 10.47 1.64 C11.29 2.45, 10.79 4.22, 10.71 5.33 C10.63 6.44, 10.55 7.07, 9.98 8.28 C9.42 9.49, 8.45 12.04, 7.32 12.61 C6.19 13.17, 4.1 12.33, 3.21 11.68 C2.31 11.03, 2.68 9.86, 1.96 8.72 C1.23 7.59, -0.9 6.06, -1.13 4.86 C-1.36 3.67, -0.75 2.42, 0.59 1.56 C1.93 0.69, 6.26 -0.16, 6.92 -0.32 C7.58 -0.48, 4.96 0.3, 4.55 0.58" stroke="none" stroke-width="0" fill="#868e96"></path><path d="M7.28 0.79 C8.62 1.35, 10.66 2.5, 11.45 3.52 C12.25 4.55, 12.59 5.56, 12.05 6.93 C11.52 8.31, 9.23 11.04, 8.24 11.77 C7.25 12.5, 7.1 11.58, 6.11 11.29 C5.13 11, 3.47 10.9, 2.33 10.03 C1.18 9.16, -0.4 7.29, -0.75 6.1 C-1.1 4.9, -0.43 3.85, 0.21 2.87 C0.85 1.89, 1.51 0.65, 3.07 0.2 C4.63 -0.25, 8.55 -0.16, 9.58 0.17 C10.62 0.5, 9.62 2.03, 9.27 2.17 M5.96 1.14 C7.16 1.29, 10.15 2.23, 10.82 3.27 C11.49 4.31, 10.3 6, 9.97 7.38 C9.63 8.75, 9.58 10.5, 8.81 11.5 C8.04 12.51, 6.5 13.43, 5.34 13.42 C4.18 13.4, 2.55 12.36, 1.84 11.43 C1.12 10.5, 1.45 9.29, 1.05 7.81 C0.65 6.34, -1.17 3.59, -0.57 2.56 C0.02 1.54, 3.6 1.9, 4.61 1.67 C5.62 1.44, 5.33 1.57, 5.5 1.2 C5.66 0.82, 5.59 -0.72, 5.61 -0.58" stroke="#000000" stroke-width="1" fill="none"></path></g><g transform="translate(1625.6309062318512 141.79513496201275) rotate(0 60.29874496153468 11.79758053595242)"><text x="60.29874496153468" y="16.595161071904883" font-family="Virgil, Segoe UI Emoji" font-size="17.4778970902999px" fill="#000000" text-anchor="middle" style="white-space: pre;" direction="ltr">Relational DB</text></g><g stroke-linecap="round"><g transform="translate(294.26302521682345 450.3333435058594) rotate(0 131.64364193451127 -0.403959290714738)"><path d="M0.71 -0.2 C44.82 -0.06, 219.94 0.73, 263.67 0.62 M-0.38 -1.34 C43.64 -1.54, 218.24 -1.41, 262.55 -1.17" stroke="#000000" stroke-width="1" fill="none"></path></g></g><g transform="translate(381.59639924026095 425.3333435058594) rotate(0 14 12.5)"><text x="0" y="18" font-family="Virgil, Segoe UI Emoji" font-size="20px" fill="#000000" text-anchor="start" style="white-space: pre;" direction="ltr">n..1</text></g><g stroke-linecap="round"><g transform="translate(148.26302521682345 525.0000305175781) rotate(0 -0.3279458227419525 64.72763836856473)"><path d="M0.17 0.25 C0.37 21.82, 0.69 108.44, 0.48 130.13 M-1.21 -0.67 C-1.06 20.51, -0.62 106.88, -0.21 128.42" stroke="#000000" stroke-width="1" fill="none"></path></g></g><g transform="translate(153.59639924026095 577.3333435058594) rotate(0 14 12.5)"><text x="0" y="18" font-family="Virgil, Segoe UI Emoji" font-size="20px" fill="#000000" text-anchor="start" style="white-space: pre;" direction="ltr">1..n</text></g><g stroke-linecap="round" transform="translate(546.2630252168235 660.3333435058594) rotate(0 145.3333740234375 93.66668701171875)"><path d="M0 0 C0 0, 0 0, 0 0 M0 0 C0 0, 0 0, 0 0 M0.27 5.6 C1.43 4.52, 3.19 2.26, 4.28 0.26 M-0.1 6.75 C2.08 3.79, 3.9 1.84, 4.66 0.07 M0.05 12.37 C2.29 8.2, 6.59 2.91, 10.71 -1.15 M0.55 11.89 C3.26 9.57, 5.65 6.29, 10.78 0.17 M1.51 18.16 C5.58 10.88, 9.01 8.19, 14.54 -0.38 M-0.33 18.3 C4.55 13.12, 9.64 6.57, 16.18 1.1 M0.72 22.82 C6.26 19.51, 7.69 11.33, 21.4 1.09 M-0.34 23.58 C7.24 17.6, 12.14 9.74, 20.99 -1.04 M1.78 31.28 C11.95 18.61, 21.77 7.88, 26.9 0.32 M0.74 31.42 C5.64 23.62, 12.68 17.28, 25.61 1.28 M-1.72 38.62 C9.53 27.51, 15.61 17.64, 32.79 0.13 M-0.79 37.02 C7.01 29.14, 14.91 20.23, 31.26 0.25 M-0.72 44.41 C14.4 28.69, 23.31 14.58, 37.67 -1.16 M-0.35 43.33 C8.04 33.96, 16.07 24.12, 36.8 0.85 M-0.6 46.99 C10.85 34.27, 26.36 18.98, 42.27 0.28 M-1.09 49.34 C12.6 33.53, 27.43 18.38, 41.94 0.78 M-0.63 54.17 C12.79 39.93, 24 28.79, 48.21 -0.2 M0.72 54.73 C16.94 34.63, 34.56 15.22, 48.05 0.5 M0.79 61.3 C16.32 39.73, 34.96 22.23, 51.22 -1.81 M0.43 59.99 C11.12 46.42, 22.37 34.17, 53.34 -0.78 M-1.24 65.94 C19.05 48.39, 35.37 25.26, 59.91 -0.18 M-0.4 67.06 C17.35 45.31, 34.68 24.87, 57.67 0.91 M-0.15 74.16 C25.05 46.87, 46.6 15.95, 65.01 -1.52 M0.07 73.65 C14.19 56.02, 28.99 40.42, 63.77 0.27 M0.16 78.82 C26.2 48.62, 51.87 22.08, 70.13 -0.47 M-0.08 79.48 C24.46 53.48, 47.65 26.73, 67.99 0.78 M1.93 86.22 C23.99 61.44, 44.83 35.04, 73.02 -2.23 M0.14 85.01 C28.27 52.19, 57.83 17.67, 73.55 0.62 M0.27 90.21 C19.57 69, 41.62 42.84, 80.26 -0.45 M-0.66 91.46 C23.65 62.51, 49.15 35.04, 79.3 0.78 M-0.24 98.85 C27.18 65.08, 55.22 31.25, 84.61 0.69 M0.32 97.52 C32.26 59.44, 67.21 20.43, 84.98 -1.05 M0.47 104.72 C18.77 79.98, 39.68 56.19, 91.68 0.51 M0.16 103.67 C28.52 70.41, 55.35 38.54, 89.93 -0.39 M0.02 111.16 C26.87 79.3, 52.57 49.57, 97.18 -0.15 M0.21 110.36 C28.25 76.7, 55.88 42.88, 96.38 -0.04 M2.14 114.99 C30.04 85.81, 57.41 52.51, 101.74 -0.96 M0.7 114.8 C38.79 70.4, 77.39 25.91, 100.19 -0.04 M-0.56 120.54 C43.6 73.66, 83.96 25.67, 108.09 -0.1 M-0.52 120.95 C39.17 75.59, 78.51 31, 106.07 0.32 M-2 126.39 C27.36 95.59, 53.18 62.84, 111.83 -0.24 M0.62 128.29 C24.31 100.55, 49.25 72.18, 110.38 0.51 M-0.61 135.61 C33.92 94.58, 67.66 57.92, 118.06 2.2 M0.44 134 C33.96 96.75, 66.51 58.03, 115.69 -0.52 M-1.27 142.04 C46.83 84.79, 92.59 33.35, 123.33 -0.71 M-0.46 141.32 C32.26 100.67, 67.03 60.91, 122.82 -0.06 M1.24 144.99 C25.55 113.31, 54.71 82.83, 125.77 1.88 M-0.6 146.19 C39.5 102.13, 78.27 57.94, 126.88 0.62 M0.94 151.42 C41.65 107.42, 81.12 60.49, 133.5 -1.56 M-0.79 153.24 C30.43 118.4, 59.98 83.82, 131.91 -0.94 M1.49 158.15 C53.53 96.05, 108.36 36.95, 136.14 0.3 M-0.01 158.94 C40.04 110.92, 81.38 62.89, 137.31 1.08 M-1.43 163.04 C33.94 124.63, 67.26 86.52, 143.93 1.12 M-0.27 164.95 C49.99 108.51, 98.11 53.38, 143.65 0.2 M-0.44 170.08 C35.92 129.13, 74.36 87.6, 149.72 1.84 M-0.09 171.4 C49.79 112.3, 101 55.23, 147.36 -0.09 M0.02 177.12 C35.89 136.24, 72.11 94.31, 152.29 0.85 M-0.38 176.98 C44.1 128.24, 86.9 77.87, 154.63 0.38 M-0.56 182.17 C33.46 142.66, 71.82 100.95, 157.49 -0.04 M0.63 183.17 C46.36 129.91, 92.1 75.54, 158.97 -0.53 M0.17 186.63 C48.48 133.25, 99.64 74.36, 163.15 -1.61 M1.48 187.47 C54.55 129, 105 69.53, 165.19 0.25 M4.74 188.12 C62.6 122.13, 120.79 57.85, 170.76 -1.32 M6.62 188.07 C43.87 142.79, 83.02 99.27, 169.04 0.25 M12.69 188.23 C57.73 133.31, 103.26 81.33, 174.21 0.82 M11.46 188.08 C65.89 126.7, 117.49 67.04, 175.62 0.41 M15.26 186.69 C56.08 140.94, 97.72 93.63, 180.71 1.69 M16.86 188.16 C53.38 146.62, 90.5 104.64, 179.49 -0.47 M22.31 187.16 C57.77 148.55, 91.02 109.08, 186.61 -1.19 M21.61 187.39 C83.68 118.29, 142.25 49.69, 186.16 -0.24 M27.55 186.94 C87.01 118.37, 147.2 51.89, 191.76 -0.32 M26.99 187.66 C81.01 125.89, 134.88 63.3, 190.58 -0.5 M32.79 187.98 C82.94 129.57, 135.2 71.05, 194.95 -0.6 M31.54 188.37 C84.14 128.6, 134.29 71.64, 197.05 0.5 M39.44 189.39 C88.87 130.34, 139.19 71.31, 201.76 -0.27 M37.28 188.75 C75.49 145.16, 112.44 102.05, 200.93 0.74 M43.28 189.68 C80.05 148.09, 118.67 105.53, 206.89 -0.16 M42.82 188.43 C82.24 145.01, 119.32 101.35, 206.92 -0.08 M48.81 188.01 C102.58 126.96, 158.92 61.79, 211.83 -0.94 M47.98 188.73 C111.54 113.33, 176.1 40.07, 212.43 0.54 M54.25 186.99 C116.31 120.14, 176.21 50.29, 217.01 0.64 M53.41 188.88 C118.31 114.71, 182 41.55, 217.66 0.23 M60.04 186.58 C103.72 137.36, 144.6 87.46, 223.11 1.46 M59.34 188.15 C103.78 137.89, 148.78 86.31, 222.06 -0.55 M63.57 186.95 C128.03 115.39, 190.21 41.32, 229.72 -0.96 M63.57 188.65 C106.44 138.15, 149.3 89.67, 227.89 0.34 M70.99 188.89 C123.78 126.78, 175.32 66.84, 233.43 0.9 M69.99 187.59 C128.57 123.41, 185.05 57.27, 233.36 -0.32 M75.61 186.81 C126.35 130.95, 173.46 76.58, 238.93 -0.42 M75.18 188.31 C126.36 130.51, 177.61 71.04, 238.85 -0.05 M79.5 188.9 C138.35 121.1, 195.8 54.22, 243.94 1.15 M80.18 187.61 C129.92 131.78, 178.11 77.07, 243.3 0.15 M84.97 187.09 C140.23 120.18, 196.47 55.58, 250.35 1.26 M85.24 188.41 C120.72 149.06, 155.73 109.79, 248.82 -0.27 M89.99 187.11 C152.39 114.53, 216.14 44.51, 255.74 -0.53 M91.8 187.12 C151.53 118.53, 212.24 50.75, 253.79 -0.21 M96.04 188.29 C154.39 120.52, 212.91 54.31, 257.91 -1.21 M95.63 187.88 C133.02 145.81, 170.89 102.72, 259.06 1 M100.29 187.33 C138.61 144.82, 174.91 100.62, 266.7 -0.38 M101.84 188.34 C142.12 141.83, 182.09 95.45, 265.06 -0.84 M106.68 187.64 C164.4 120.85, 223.41 52.5, 269.28 -0.76 M106.61 188.93 C144.68 145.08, 183.07 102.08, 269.8 1.06 M111.54 186.77 C167.32 121.21, 222.71 57.28, 274.67 -1.14 M112.19 188.54 C174.97 112.65, 239.13 40.6, 275.75 0.46 M118 188.95 C178.7 114.8, 244.81 41.17, 282.31 -0.15 M116.79 188.84 C165.25 131.94, 211.42 78.39, 281.32 0.47 M121.58 189.24 C178.16 122.9, 235.65 56.47, 287.32 0.96 M123.1 188.29 C167.59 134.78, 214.08 83.27, 286.11 -0.66 M127.87 189.43 C172.87 136.83, 215.29 86.51, 291.58 1.12 M128.08 188.17 C172.88 137.68, 215.92 87.61, 290.58 -0.22 M134.84 188.71 C174.92 139.42, 217.78 90.18, 290.02 6.69 M133.18 188.17 C189.64 122.26, 247.75 55.19, 290.47 6.43 M137.35 189.67 C175.53 144.03, 211.57 102.05, 290.32 13.14 M139.1 187.47 C177.47 146.17, 213.3 103.79, 291.63 12.38 M145.92 188.98 C197.37 128.47, 245.57 70.51, 291.86 18.3 M144.36 187.04 C193.91 130.02, 243.02 72.42, 290.41 19.18 M147.61 186.64 C195.59 135.62, 245.59 79.94, 291.55 26.14 M148.37 187.32 C187.58 143.43, 227.31 97.53, 291.59 25.32 M155.16 187.85 C182.26 154.82, 209.18 123.71, 291.89 31.1 M154.58 187.94 C189.57 149.17, 223.81 109.17, 290.8 31.18 M159.96 187.82 C210.53 132.41, 261.82 74.38, 292.42 38.03 M159.62 188.37 C191.3 152.34, 223.24 115.67, 291.7 36.47 M165.06 187.81 C200.21 144.62, 236.71 106.4, 290.52 42.82 M165.48 188.28 C213.86 134.44, 262.59 77.95, 291.38 43.78 M172.29 186.65 C195.95 158.38, 220.36 131.2, 290.4 49.29 M169.52 187.67 C194.32 161.1, 219.05 132.56, 290.36 50.09 M176.25 186.66 C203.07 162.01, 227.26 130.44, 290.32 56.36 M174.58 187.56 C222.26 136.14, 266.44 84.2, 291.84 56.04 M181.69 187.64 C208.11 159, 231.7 125.46, 290.52 60.37 M180.37 187.65 C206.85 160.08, 232.48 129.82, 291.77 61.09 M186.21 188.94 C208.32 161.73, 231.05 137.48, 292.1 69.15 M186.24 188.42 C224.4 146.19, 261.65 103.46, 291.77 67.47 M193.56 187.38 C223.65 152.07, 252.89 118.18, 289.63 72.78 M192.43 187.05 C230.65 144.56, 269.83 99.51, 291.64 74.87 M196.33 187.29 C225.4 153.58, 258.01 116.76, 293.21 77.82 M196.78 187.54 C230.14 151.2, 262.12 113.13, 291.48 78.76 M201.27 186.49 C227.12 162.06, 248.52 132.2, 290.43 85.62 M202.03 188.57 C234.9 150.88, 267 114.28, 291.61 86.6 M207.98 186.33 C237.81 150.18, 270.03 113.19, 291.04 90.99 M206.51 187.61 C225.8 166.59, 244.5 148.04, 291.28 92.59 M214.2 189.61 C239.06 156.46, 264.94 129.91, 289.64 96.27 M213.47 186.88 C228.86 169.86, 244.6 151.88, 291.34 97.71 M218.54 186.68 C235.05 171.71, 249.92 155.19, 290.31 106.04 M217.74 187.33 C236.57 168.04, 253.09 147.29, 290.84 104.41 M221.72 189.36 C245.21 162.33, 269.15 135.33, 292.62 109.37 M223.06 188.67 C250.21 158.46, 275.98 128.23, 291.12 110.9 M229.37 188.97 C242.75 173.12, 257.92 153.94, 289.7 118.09 M228.78 187.37 C245.82 167.54, 264.27 145.8, 291.77 117.4 M233.21 186.35 C250.17 167.6, 269.5 148.1, 292.76 121.52 M235.13 188.63 C257.35 162.23, 278.45 136.17, 291.28 122.86 M237.85 189.83 C256.27 168.9, 269.98 153.63, 289.93 128.51 M239.95 188.43 C252.57 173.61, 265.3 159.01, 291.74 129 M246.04 189.23 C257.37 174.04, 267.68 159.35, 290.77 134.13 M243.98 187.46 C256.72 174.34, 269.44 160.51, 291.47 135.02 M249.37 189.88 C257.64 178.06, 268.1 166.55, 292.37 141.94 M249.56 187.19 C264.46 170.5, 280.24 152.62, 291.05 139.89 M253.58 186.6 C262.62 176.45, 272.96 166.23, 289.34 146.29 M255.92 187.82 C265.82 177.12, 276.26 163.7, 291.32 146.57 M261.29 189.74 C267 180.58, 275.74 171.59, 290.41 150.99 M259.92 188.34 C269.56 176.12, 279.78 166.21, 292.02 152.77 M264.57 187.86 C274.75 180.46, 282 170.56, 289.19 159.39 M264.62 189.18 C274.04 179.03, 282.31 169.38, 290.49 158.95 M270.99 186.04 C274.35 183.15, 280.3 179.08, 292.76 165.05 M271.34 188.56 C278.52 179.31, 285.05 172.56, 290.3 165.07 M277.67 188.11 C278.61 183.19, 282.78 179.06, 291.7 170.06 M275.69 188.7 C280.54 185, 283.86 179.82, 291.27 170.84 M280.43 187.58 C283.69 185.62, 286.55 180.27, 290.37 178.69 M282.03 188.38 C285.56 184.47, 288.51 180.6, 291.36 177.81 M286.37 188.48 C288.24 187.1, 289.89 185.12, 290.97 183.01 M286.78 188.16 C288.47 186.56, 289.66 184.79, 291.59 183.01 M0.07 187.4 C0.07 187.4, 0.07 187.4, 0.07 187.4 M0.07 187.4 C0.07 187.4, 0.07 187.4, 0.07 187.4 M6.64 186.79 C3.01 185.92, 1.77 183.92, -0.92 181.52 M6.84 188.09 C4.67 186.15, 3.32 184.89, -0.56 182.12 M13.28 187.19 C8.49 183.68, 3.53 178.54, -1.49 176.16 M12.16 187.79 C9.61 184.84, 6.83 182.17, 0.69 176.05 M18.01 188.89 C13.87 186.13, 11.1 182.21, 0.9 169.68 M18.82 186.92 C14.58 184.77, 10.24 179.11, 0.53 170.45 M25.55 187.38 C14.92 178.46, 7.23 174.11, -1.42 165.9 M24.38 187.24 C15.96 179.06, 7.84 173.44, 0.62 166.31 M32.14 186.3 C23.45 181.34, 14.17 175.05, 0.36 162.83 M31.3 186.9 C17.97 177.27, 7.69 166.58, -0.47 161.26 M38.94 187.81 C22.85 173.31, 6.83 163.56, -1.12 155.16 M35.98 187.72 C23.14 177.33, 10.62 165.07, -0.07 154.85 M42.62 186.59 C26.89 173.12, 14.86 159.52, 0.59 152.03 M43.07 187.24 C27.11 174.26, 12.1 158.89, 0.97 150.37 M49.6 187.77 C29.81 171.35, 13.37 154.62, 0.4 144.44 M49.75 186.75 C37.9 178.07, 24.7 167.83, -0.92 144.19 M54.81 186.38 C37.5 171.51, 17.98 156.19, -0.27 138.53 M54.43 186.63 C40.05 175.92, 26.13 162.48, -0.09 139.11 M59.67 188.55 C43.37 172.59, 23.29 156.07, 0.5 134.34 M60.78 187.66 C40.06 170.25, 20.35 152.91, 0.38 135.01 M66.85 186.96 C51.28 176.68, 37.61 163.02, -0.85 130.98 M66.46 188.41 C45.93 170.03, 24.49 150.61, 0.67 130.18 M74.51 186.77 C60.35 175.53, 45.08 162.08, 0.58 125.49 M73.37 187.16 C53.21 170.17, 34.76 153.92, 0.16 124.01 M78.6 187.63 C60.92 170.24, 39.75 152.87, 0.22 117.99 M79.94 187.95 C63.22 173.25, 48.19 159.76, -0.45 118.27 M83.51 187.05 C58.73 164.15, 29.76 140.17, -2.01 114.51 M85.84 187.92 C58.31 163.86, 31.4 139.65, 0.72 113.86 M92.19 185.68 C67.35 166.19, 47.27 148.39, 0.32 108.19 M91.97 186.6 C56.66 157.65, 20.89 125.8, 0.86 108.06 M96.79 186.68 C71.99 166.06, 42.92 142.41, -1.88 102.04 M97.25 187.28 C62.99 156.74, 25.99 126.62, 0.38 103.26 M105 185.73 C78.96 163.36, 50.25 138.38, 0.83 98.21 M102.83 187.04 C65.99 155.24, 30.25 122.89, 0.93 98.23 M110.23 188.96 C75.62 158.61, 44.93 129.48, -1.65 92.7 M110.4 186.64 C80.65 162.11, 51.36 135.48, -0.56 90.89 M114.4 188.4 C81.21 155.41, 42.29 125.15, -0.89 88.66 M114.86 187.97 C74.13 149.03, 30.34 112.2, 0.06 87.49 M121.94 187.19 C95.35 162.79, 67.27 137.83, 0.04 79.11 M122.37 187.31 C84.09 155.44, 48.35 123.43, 0.22 81.44 M126.52 186.99 C99 161.52, 68.3 137.27, 0.55 76.18 M129.1 186.72 C90.83 154.44, 53.92 122.19, 0.57 76.51 M133.3 185.98 C95.99 155.68, 55.21 120.61, 0.57 69.89 M133.47 188.01 C90.42 147.95, 47.12 111.01, -0.97 69.6 M141.23 188.79 C104.34 159.23, 69.07 128.64, -1.48 65.39 M140.38 186.68 C86.97 140.13, 31.93 94.02, 0.77 65.98 M145.7 185.95 C96.02 144.81, 51.06 102.57, 1.32 61.68 M146 187.4 C114.97 159.8, 82.39 133.26, 0.19 60.05 M152.63 187.13 C92.4 134.48, 31.25 81.71, -1.44 53.11 M151.82 187.21 C100.47 141.73, 50 99.15, 0.87 54.62 M157.45 188.31 C103.33 139.14, 46.82 89.35, -0.35 50.87 M159.02 186.94 C120.49 153.59, 83.04 121.75, -0.04 49.46 M165.95 186.63 C115.67 143.78, 63.2 97.79, 1.34 43.48 M163.65 186.96 C99.09 131.62, 33.31 74.84, -0.46 44.93 M171.7 188.47 C135.16 153.82, 100.98 125.15, 1.52 39.39 M171.32 187.67 C125.96 149.93, 82.17 111.23, -0.34 39.26 M175.37 187.63 C139.83 153.84, 101.89 122.52, 1.13 33.43 M176.11 186.66 C132.78 149.44, 89.67 111.37, 0.51 33.92 M183.46 187.84 C123.86 136.68, 65.32 83.85, -0.47 29.73 M182.25 187.34 C118.95 130.42, 54.38 73.57, -0.27 28.71 M189.66 187.88 C123.9 131.76, 59.15 74.77, -0.68 23.49 M190.13 187.53 C123.76 131.66, 56.94 73.11, 0.55 22.29 M194.06 186.98 C130.69 133.46, 67.19 75.96, -0.96 16.39 M195.42 186.57 C118.21 121.44, 43.29 55.29, 1.08 17.39 M201.7 186.72 C133.24 128.45, 66.83 69.96, 0.31 11 M201.23 187.16 C123.9 120.97, 48.1 54.57, -0.01 12.22 M207.78 186.42 C153.9 139.94, 99.15 94.75, 0.98 6.44 M207.74 187.51 C159.92 148.66, 114.39 107.51, 0.71 7.46 M213.42 188.38 C170.2 150.33, 125.7 109.89, -1.22 2.78 M213.65 186.79 C127.54 113.87, 42.16 40.12, -0.87 1.02 M220.11 187.24 C146.11 125.92, 72.53 62.4, 1.65 -1.68 M220.27 188.15 C146.55 123.59, 71.66 58.8, 2.04 -2.39 M225.88 187.17 C182.13 148.66, 136.75 108.55, 7.22 -2.78 M226.03 186.93 C166.42 135.23, 104.72 82.66, 8.01 -2 M230.69 188.57 C187.68 149.03, 142.9 110.54, 14.29 -2.62 M231.8 187.79 C187.77 149, 143.93 109.97, 14.34 -2.22 M237.09 186.62 C159.28 122.35, 86.51 56.32, 19.06 -3.03 M237.12 186.57 C174.8 133.04, 111.58 78.12, 20.8 -1.78 M244.3 188.53 C182.25 133.45, 120.02 82.04, 26.35 -2.05 M243.27 187.58 C182.39 134.87, 122.13 81.44, 25.78 -2.2 M248.85 187.86 C190.48 138.55, 130.92 86.2, 31.58 -0.78 M250.93 186.91 C185.7 132.91, 121.07 75.4, 32.45 -2.58 M255.96 187.6 C210.46 146.4, 165.12 105.17, 39.6 -1.86 M256.44 186.53 C203.95 140.77, 152.27 95.72, 38.85 -1.16 M263.68 187.04 C218.62 147.36, 172.07 104.97, 42.81 -1.58 M261.65 187.15 C181.5 117.73, 99.52 46.25, 44.72 -2.38 M266.7 186.25 C221.63 145.28, 173.74 105.23, 50.57 -2.89 M268.53 186.67 C191.85 120.41, 116.35 53.83, 50.76 -1.4 M274.35 188.29 C187.79 112.9, 100.37 38.69, 56.79 -1.96 M274.79 186.94 C191.01 114.5, 107.15 40.86, 56.33 -2.18 M281.32 188.61 C209.55 125.52, 135.88 62.69, 64.05 -1 M280.53 187.66 C220.14 135.67, 158.91 83.27, 62.51 -1.75 M287.92 186.06 C230.99 140.59, 176.05 91.78, 69.29 -0.79 M286.07 186.82 C242.93 148.37, 198.44 110.9, 69.78 -2.29 M291.82 186.52 C206 112, 121.02 38.23, 75.07 -1.74 M291.16 185.9 C226.53 132, 161.59 76.41, 74.32 -1.68 M292.61 180.93 C248.48 144.96, 203.37 103.88, 79.8 -1.92 M291.96 181.4 C230.94 125.94, 171.09 74.14, 80.78 -2.02 M290.91 176.25 C246.35 137.86, 202.4 100.98, 87.69 -1.61 M290.83 176.21 C233.24 127.54, 177.39 78.1, 86.44 -2.19 M290.88 171.75 C227.97 114.46, 165.11 59.26, 93.22 -1.17 M291.14 171.01 C227.71 116.44, 164.14 59.59, 93.35 -1.67 M290.17 164.34 C244.07 121.32, 195.81 80.76, 100.68 -2.63 M291.95 165.24 C237.49 117.99, 184.5 71.94, 99.9 -2.14 M292.29 160.42 C221.83 97.78, 148.66 37.28, 104.4 -1.12 M292.3 159.14 C223.29 101.03, 156.29 42.4, 104.62 -2.3 M290.76 154.49 C235.9 105.74, 178.54 56.53, 110.27 -2.42 M291.58 155.09 C223.07 96.08, 154.84 37.28, 111.83 -2.27 M291.55 150.63 C246.06 111.16, 201.66 72.17, 117.66 -1.33 M290.8 149.61 C241.23 104.87, 191.13 61.62, 116.43 -1.72 M290.56 143.99 C248.82 104.81, 207.37 71.23, 125.08 -3.04 M291.56 142.98 C249.97 107.36, 210.93 72.68, 123.2 -1.27 M293.14 139.58 C233.25 88.51, 176.5 40.96, 131.68 -0.62 M291.92 138 C232.97 89.38, 175.72 40.51, 129.85 -2.08 M290.71 133.33 C248.38 97.02, 207.09 57.5, 136.14 -0.47 M290.44 132.91 C238.23 88.74, 186.29 42.55, 136 -2 M291.27 127.68 C243.74 86.53, 196.71 44.94, 142.6 -3.47 M290.69 128.38 C256.31 97.85, 218.82 66.22, 141.93 -2.46 M293.38 123.8 C260.04 95.55, 227.22 66.51, 148.05 -1.07 M290.89 122.65 C244.23 82.54, 196.36 41.16, 146.91 -2.15 M290.65 119.4 C240.17 72.61, 188.03 26.59, 155.95 -0.92 M291.13 117.78 C261.72 92.24, 231.41 66.62, 153.66 -1.28 M290.51 110.63 C246.34 74.26, 201.21 33.1, 158.99 -0.34 M292.06 111.52 C252.8 76.76, 212.32 44.62, 160.82 -2.29 M292.87 107.5 C247.37 68.52, 199.96 25.39, 165.33 -0.17 M291.59 106.78 C248.38 69.63, 207.22 32.16, 165.32 -1.89 M292.17 103.15 C262.43 75.15, 229.64 49.8, 172.9 -2.77 M290.91 100.83 C256.72 70.71, 218.91 39.39, 172.58 -1.05 M291.31 96.6 C255.74 67.35, 224.67 36.97, 180.12 -0.62 M290.41 96.08 C256.87 66.91, 223.9 37.18, 177.24 -1.61 M291.73 89.98 C250.97 55.14, 209.56 18.9, 183.91 -3.07 M291.76 91.29 C269.48 70.64, 245.33 51.4, 185.24 -1.07 M291.34 87.32 C267.44 67.48, 247.72 43.77, 190.43 -0.96 M291.88 86.36 C258.16 56.21, 223.11 26.86, 190.48 -1.1 M290.57 79.76 C257.6 50.27, 221.71 17.93, 197.37 -0.62 M290.93 79.57 C262.2 56.67, 233.81 29.62, 197.12 -1.67 M290.33 76.3 C257.79 47.38, 227.17 17.74, 204.15 -1.9 M292.32 74.32 C262.42 47.63, 231.54 21.91, 203.83 -0.98 M290.06 69.1 C271.49 54.74, 251.35 34.21, 206.68 -2.79 M290.73 70.37 C271.21 53.75, 250.58 36.5, 208.53 -2.16 M289.67 64.16 C263.96 39.38, 236.45 14.74, 215.4 -2.15 M292.05 64.63 C263.67 38.75, 234.78 14.31, 214.38 -1.91 M291.58 58.63 C274.97 47.7, 260.37 33.13, 221.97 -0.3 M291.46 58.37 C271.18 40.4, 251.83 23.27, 220.54 -1.2 M290.72 55.52 C275.71 40.39, 257.89 25.21, 225.55 -1.08 M291.36 53.99 C271.09 37.36, 251.47 20.1, 226.42 -1.2 M292.51 48.97 C272.34 31.77, 251.23 15.14, 235.09 -1.84 M291.44 48.26 C273.01 31.31, 253.93 16.58, 233.95 -1.41 M290.87 43 C280 33.43, 266.09 21.98, 239.98 -2.07 M290.59 43.08 C281.45 34.37, 269.15 23.89, 238.28 -2.17 M290.22 36.75 C278.94 26.16, 269.7 19.02, 244.17 -2.13 M290.99 38.72 C282.81 28.92, 272.59 21.74, 245.84 -1.45 M291.48 31.24 C275.74 19.08, 263.1 8.33, 252.82 0.15 M292.03 32.59 C277.25 19.72, 264.63 9.45, 251.03 -1.46 M290.08 26.6 C277.19 17.03, 267.55 3.19, 258.6 -0.55 M292.41 26.45 C283.87 21.54, 276.56 14.44, 258.5 -2.63 M289.93 20.85 C283.73 14.47, 276.57 10.31, 263.94 -3.09 M292.01 21.21 C280.14 12.27, 270.85 4.7, 263.45 -1.7 M293.47 15.13 C284.57 10.3, 277.91 3.19, 267.74 -0.46 M292.02 16.14 C286.92 13.57, 281.83 9.37, 270.27 -2.27 M292.36 13.12 C287.04 6.85, 278.81 2.35, 275.45 -2.51 M291.59 12.28 C284.93 6.26, 280.01 -0.16, 276.63 -1.56 M290.45 6.64 C287.13 3.09, 285.79 0.94, 282.01 -1.05 M291.87 6.32 C289.67 4.65, 287.28 1.9, 282.29 -1.31 M291.54 0.69 C290.59 0.1, 288.95 -0.7, 288.24 -1.99 M291.78 1.14 C290.72 0.19, 290.17 -0.59, 288.27 -2.2" stroke="#eeeeee" stroke-width="0.5" fill="none"></path><path d="M1.25 -0.49 C91.47 -0.34, 184.21 0.02, 289.56 -0.25 M-0.08 -0.32 C58.85 0.38, 118.03 0.76, 291.4 0.24 M289.42 -1.78 C290.89 58.14, 290.81 114.4, 289.08 189.06 M291.61 0.52 C288.21 55.14, 289.93 109.26, 290.19 186.93 M292.08 186.84 C177.71 188.78, 62.19 188.6, 0.49 187.69 M289.98 187.73 C178.93 186.37, 67.17 186.7, 0.09 187.02 M-0.5 186.38 C-1.82 145.98, -1.56 101.32, 1.18 0.77 M0.22 186.67 C-0.83 149.01, -0.23 110.9, 0.95 -0.24" stroke="#000000" stroke-width="1" fill="none"></path></g><g transform="translate(554.9297732636985 668.0000305175781) rotate(0 30.5 12.5)"><text x="0" y="18" font-family="Virgil, Segoe UI Emoji" font-size="20px" fill="#000000" text-anchor="start" style="white-space: pre;" direction="ltr">Emote</text></g><g transform="translate(554.2630252168235 706.6667175292969) rotate(0 104.5 63.5)"><text x="0" y="17.4" font-family="Virgil, Segoe UI Emoji" font-size="20px" fill="#000000" text-anchor="start" style="white-space: pre;" direction="ltr">ID</text><text x="0" y="42.8" font-family="Virgil, Segoe UI Emoji" font-size="20px" fill="#000000" text-anchor="start" style="white-space: pre;" direction="ltr">Shortcut (text form)</text><text x="0" y="68.19999999999999" font-family="Virgil, Segoe UI Emoji" font-size="20px" fill="#000000" text-anchor="start" style="white-space: pre;" direction="ltr">URL</text><text x="0" y="93.6" font-family="Virgil, Segoe UI Emoji" font-size="20px" fill="#000000" text-anchor="start" style="white-space: pre;" direction="ltr">Image? (Binary)</text><text x="0" y="119" font-family="Virgil, Segoe UI Emoji" font-size="20px" fill="#000000" text-anchor="start" style="white-space: pre;" direction="ltr">Channel ID</text></g><g stroke-linecap="round"><g transform="translate(546.2630252168235 697.6667175292969) rotate(0 144.89360475190915 0.7189328306783409)"><path d="M1.02 1.13 C48.84 1.12, 239.39 0.13, 287.33 0.23 M0.1 0.68 C48.28 0.75, 241.67 1.37, 289.69 1.18" stroke="#000000" stroke-width="1" fill="none"></path></g></g><g stroke-linecap="round"><g transform="translate(690.9297732636985 529.0000305175781) rotate(0 0.05248774935671463 65.4268028735695)"><path d="M-0.84 -0.41 C-0.67 21.67, -0.17 110.49, -0.14 132.52 M0.92 -1.67 C1.14 20.05, -0.12 108.23, -0.47 130.67" stroke="#000000" stroke-width="1" fill="none"></path></g></g><g transform="translate(696.9297732636985 588.6667175292969) rotate(0 14 12.5)"><text x="0" y="18" font-family="Virgil, Segoe UI Emoji" font-size="20px" fill="#000000" text-anchor="start" style="white-space: pre;" direction="ltr">1..n</text></g></svg>